M48
;Layer_Color=9474304
;FILE_FORMAT=4:4
METRIC,LZ
;TYPE=PLATED
T1F00S00C0.4000
T2F00S00C0.7110
T3F00S00C1.0000
T4F00S00C1.1000
T5F00S00C1.3500
T6F00S00C1.4220
T7F00S00C1.8000
T8F00S00C2.5400
T9F00S00C2.8000
;TYPE=NON_PLATED
T10F00S00C3.0000
T11F00S00C4.3000
%
T01
X0111Y00395
X0112
Y00405
X0111
Y00415
X0112
X0117Y00845
Y00855
X0118
Y00845
Y00865
X0117
X0112Y01185
X0111
Y01195
X0112
Y01205
X0111
X01115Y0175
Y0176
Y0177
X01125
Y0176
Y0175
T02
X00485Y0021
X0139Y00245
X0141
X01276832Y00373351
X01165Y00345
X01185Y0044
X01424435Y00675349
X01445Y00675
X0103323Y00569688
X0105323Y00539688
Y00489688
Y00434688
X0114515Y00361409
X0114788Y0082212
X0106Y0092
Y0096
Y00985
Y01025
X01175351Y00823857
X0124288Y0079212
X0135Y00735
X0139Y0105
X01410009Y01050003
X01265Y0115
X011745Y011395
X011845Y012245
X01145351Y01143857
X01055Y01205
Y0126
Y013
X0103Y0134
X0105Y01755
Y01805
Y01855
X01145Y01715
X011695Y016995
X01185Y01785
X0127Y0171
X01405Y01635
X0143
X01025Y019
T03
X0053Y01125
X0063
Y0155
X0053
T04
X001292Y0009
X001546
X0018
X002054
X002308
X002562
X002816
X00307
X0039
X004154
X004408
X004662
X004916
X00517
X005424
X005678
X01443
X014684
X014938
X015192
X015446
X0157
X015954
X016208
X0171Y001676
Y00193
Y002184
Y002438
Y002692
Y002946
Y0032
Y003454
Y004338
Y004592
Y004846
Y0051
Y005354
Y005608
Y005862
Y006116
Y006784
Y007038
Y007292
Y007546
Y0078
Y008054
Y008308
Y008562
Y009492
Y009746
Y01
Y010254
Y010508
Y010762
Y011016
Y01127
Y012092
Y012346
Y0126
Y012854
Y013108
Y013362
Y013616
Y01387
Y014738
Y014992
Y015246
Y0155
Y015754
Y016008
Y016262
Y016516
Y017292
Y017546
Y0178
Y018054
Y018308
Y018562
Y018816
Y01907
T05
X010546Y0032
X0108
X0107Y0084
X010954
X0109Y01105
X010646
Y0167
X0109
T06
X0116Y0066
X01105
X01045
X0052Y0064
Y00585
Y00525
Y0047
Y00415
X0045
Y0047
Y00525
Y00585
Y0064
X00375
Y00585
Y00525
Y0047
Y00415
X003
X00225
X0015
Y0047
Y00525
Y00585
Y0064
X00225
Y00585
Y00525
X003
Y00585
Y0064
X00075
Y00585
Y00525
Y0047
Y00415
X00545Y0102
X0057Y01
X006Y0102
Y0098
X0063Y01
X00655Y0102
Y0098
X00685Y01
X00715Y0102
Y0098
X01045Y00765
X01105
Y00715
X0116
Y00765
X01155Y01475
X011
X01045
X0051Y01335
X0054Y0189
X006
X0066
X0072
X01045Y01575
X011
Y01525
X01155
Y01575
X0072Y0193
X0069Y0191
X0066Y0193
X0063Y0191
X006Y0193
X0057Y0191
X0054Y0193
T07
X0088Y00423
Y0047
Y00517
Y00903
Y0095
Y00997
X00885Y01193
Y0124
Y01287
X0088Y01743
Y0179
Y01837
T08
X00225651Y00470109
X00300651
X0043809Y01038465
X01045Y00715
X00425Y01335
Y01705
X01043091Y01527771
X0045Y01905
T09
X0029Y0081
X0034
Y0091
X0029
Y0112
X0034
Y0122
X0029
Y014227
X0034
Y015227
X0029
Y0173
X0034
Y0183
X0029
T10
X002Y007527
Y009673
Y010627
Y012773
Y013654
Y0158
Y016727
Y018873
T11
X0004Y0004
X0176
Y0196
X0004
M30
