G04*
G04 #@! TF.GenerationSoftware,Altium Limited,Altium Designer,23.1.1 (15)*
G04*
G04 Layer_Color=8421504*
%FSLAX44Y44*%
%MOMM*%
G71*
G04*
G04 #@! TF.SameCoordinates,0EA7A712-66D5-4987-9214-F4AEDCE7AAE5*
G04*
G04*
G04 #@! TF.FilePolarity,Positive*
G04*
G01*
G75*
%ADD15R,2.6416X1.1938*%
%ADD16R,2.4300X2.3700*%
%ADD17R,1.7000X1.1500*%
%ADD18R,1.1500X1.7000*%
%ADD19R,1.0700X1.8200*%
%ADD20R,1.2500X1.5500*%
%ADD21R,1.5500X1.2500*%
%ADD22R,1.9200X1.3000*%
%ADD23R,1.3000X1.9200*%
%ADD24R,2.1500X2.2500*%
%ADD25R,11.6800X2.1600*%
%ADD26R,8.8900X7.0100*%
%ADD27R,2.0300X3.8100*%
%ADD28R,1.5250X0.6500*%
%ADD29R,2.6000X3.1000*%
%ADD30R,1.5000X1.0000*%
%ADD31R,3.8000X1.0500*%
%ADD32R,9.4500X10.6700*%
%ADD33R,2.0000X3.0500*%
%ADD34R,0.9100X1.3900*%
%ADD35R,0.8900X1.4200*%
%ADD36R,2.9000X5.4000*%
%ADD37R,2.2500X2.1500*%
%ADD38R,1.5400X1.6000*%
%ADD39R,5.0600X3.8000*%
%ADD40R,1.0500X1.8000*%
%ADD41R,1.7800X1.0400*%
%ADD42R,1.3900X0.9100*%
%ADD43R,3.0500X2.0000*%
D15*
X485000Y380000D02*
D03*
Y333264D02*
D03*
D16*
X1225000Y1140000D02*
D03*
Y1202400D02*
D03*
X1320000Y752600D02*
D03*
Y815000D02*
D03*
X1230000Y1762400D02*
D03*
Y1700000D02*
D03*
X1235000Y427400D02*
D03*
Y365000D02*
D03*
D17*
X485000Y240000D02*
D03*
Y270000D02*
D03*
D18*
X1660000Y645000D02*
D03*
X1630000D02*
D03*
X1610000Y1685000D02*
D03*
X1640000D02*
D03*
X1600000Y1170000D02*
D03*
X1630000D02*
D03*
X1615000Y390000D02*
D03*
X1645000D02*
D03*
D19*
X1050000Y900000D02*
D03*
X1022400D02*
D03*
X1050000Y410000D02*
D03*
X1022400D02*
D03*
X1016200Y1730000D02*
D03*
X1043800D02*
D03*
X1016200Y1780000D02*
D03*
X1043800D02*
D03*
X1022400Y1180000D02*
D03*
X1050000D02*
D03*
X1022400Y1230000D02*
D03*
X1050000D02*
D03*
X1022400Y940000D02*
D03*
X1050000D02*
D03*
X1022400Y455000D02*
D03*
X1050000D02*
D03*
D20*
X1130000Y320000D02*
D03*
X1164500D02*
D03*
X1140000Y1105000D02*
D03*
X1174500D02*
D03*
X1135000Y1670000D02*
D03*
X1169500D02*
D03*
D21*
X1375000Y1639500D02*
D03*
Y1605000D02*
D03*
X1350000Y1050000D02*
D03*
Y1015500D02*
D03*
X1270000Y790000D02*
D03*
Y824500D02*
D03*
X1455000Y620000D02*
D03*
Y585500D02*
D03*
X1355000Y244500D02*
D03*
Y210000D02*
D03*
D22*
X1340000Y1640000D02*
D03*
Y1613800D02*
D03*
X1315000Y1050000D02*
D03*
Y1023800D02*
D03*
X1420000Y620000D02*
D03*
Y593800D02*
D03*
X1320000Y241200D02*
D03*
Y215000D02*
D03*
D23*
X1373800Y760000D02*
D03*
X1400000D02*
D03*
X1376200Y435000D02*
D03*
X1350000D02*
D03*
X1371200Y1215000D02*
D03*
X1345000D02*
D03*
X1385000Y1830000D02*
D03*
X1358800D02*
D03*
D24*
X1375000Y665000D02*
D03*
Y709000D02*
D03*
X710000Y1818000D02*
D03*
Y1862000D02*
D03*
X630000Y856000D02*
D03*
Y900000D02*
D03*
D25*
X1505000Y813950D02*
D03*
X1475000Y1758950D02*
D03*
X1462850Y1189050D02*
D03*
X1465000Y385850D02*
D03*
D26*
X1505000Y768100D02*
D03*
X1475000Y1713100D02*
D03*
X1462850Y1143200D02*
D03*
X1465000Y340000D02*
D03*
D27*
X1527850Y674900D02*
D03*
X1482150D02*
D03*
X1452150Y1619900D02*
D03*
X1497850D02*
D03*
X1440000Y1050000D02*
D03*
X1485700D02*
D03*
X1442150Y246800D02*
D03*
X1487850D02*
D03*
D28*
X1092880Y1779050D02*
D03*
Y1766350D02*
D03*
Y1753650D02*
D03*
Y1740950D02*
D03*
X1147120D02*
D03*
Y1753650D02*
D03*
Y1766350D02*
D03*
Y1779050D02*
D03*
X1087880Y1214050D02*
D03*
Y1201350D02*
D03*
Y1188650D02*
D03*
Y1175950D02*
D03*
X1142120D02*
D03*
Y1188650D02*
D03*
Y1201350D02*
D03*
Y1214050D02*
D03*
X1147880Y874050D02*
D03*
Y861350D02*
D03*
Y848650D02*
D03*
Y835950D02*
D03*
X1202120D02*
D03*
Y848650D02*
D03*
Y861350D02*
D03*
Y874050D02*
D03*
X1087880Y424050D02*
D03*
Y411350D02*
D03*
Y398650D02*
D03*
Y385950D02*
D03*
X1142120D02*
D03*
Y398650D02*
D03*
Y411350D02*
D03*
Y424050D02*
D03*
D29*
X1120000Y1760000D02*
D03*
X1115000Y1195000D02*
D03*
X1175000Y855000D02*
D03*
X1115000Y405000D02*
D03*
D30*
X715000Y760000D02*
D03*
Y792000D02*
D03*
X640000Y1796000D02*
D03*
Y1764000D02*
D03*
D31*
X550000Y1794600D02*
D03*
Y1845400D02*
D03*
Y919600D02*
D03*
Y970400D02*
D03*
D32*
X450000Y1820000D02*
D03*
Y945000D02*
D03*
D33*
X550000Y1335000D02*
D03*
X622000D02*
D03*
X1635000Y1595000D02*
D03*
X1563000D02*
D03*
X1632000Y1070000D02*
D03*
X1560000D02*
D03*
D34*
X1110000Y1820000D02*
D03*
X1126400D02*
D03*
X1021800Y1830000D02*
D03*
X1038200D02*
D03*
X1108600Y1260000D02*
D03*
X1125000D02*
D03*
X1028600Y1280000D02*
D03*
X1045000D02*
D03*
X1026800Y1000000D02*
D03*
X1043200D02*
D03*
X1108600Y495000D02*
D03*
X1125000D02*
D03*
X1028600Y515000D02*
D03*
X1045000D02*
D03*
D35*
X1340300Y1920000D02*
D03*
X1359700D02*
D03*
X1330000Y1355000D02*
D03*
X1349400D02*
D03*
X1385300Y970000D02*
D03*
X1404700D02*
D03*
X1335000Y530000D02*
D03*
X1354400D02*
D03*
D36*
X1180000Y1870000D02*
D03*
X1279000D02*
D03*
X1171000Y1305000D02*
D03*
X1270000D02*
D03*
X1250000Y920000D02*
D03*
X1349000D02*
D03*
X1165500Y535000D02*
D03*
X1264500D02*
D03*
D37*
X1380000Y1710000D02*
D03*
X1336000D02*
D03*
X1370000Y1140000D02*
D03*
X1326000D02*
D03*
X1379000Y325000D02*
D03*
X1335000D02*
D03*
D38*
X1051000Y1889350D02*
D03*
Y1910650D02*
D03*
X1056000Y1334350D02*
D03*
Y1355650D02*
D03*
X1081000Y999350D02*
D03*
Y1020650D02*
D03*
X1056000Y564350D02*
D03*
Y585650D02*
D03*
D39*
X1090000Y1900000D02*
D03*
X1095000Y1345000D02*
D03*
X1120000Y1010000D02*
D03*
X1095000Y575000D02*
D03*
D40*
X1530000Y1855000D02*
D03*
X1561000D02*
D03*
X1514000Y1305000D02*
D03*
X1545000D02*
D03*
X1594000Y715000D02*
D03*
X1625000D02*
D03*
X1519500Y465000D02*
D03*
X1550500D02*
D03*
D41*
X1280000Y1770000D02*
D03*
Y1742600D02*
D03*
X1285000Y1207400D02*
D03*
Y1180000D02*
D03*
X1375000Y822400D02*
D03*
Y795000D02*
D03*
X1290000Y432400D02*
D03*
Y405000D02*
D03*
D42*
X1125000Y930000D02*
D03*
Y946400D02*
D03*
D43*
X1575000Y530000D02*
D03*
Y602000D02*
D03*
X1570000Y178000D02*
D03*
Y250000D02*
D03*
M02*
