G04*
G04 #@! TF.GenerationSoftware,Altium Limited,Altium Designer,23.1.1 (15)*
G04*
G04 Layer_Color=8388736*
%FSLAX44Y44*%
%MOMM*%
G71*
G04*
G04 #@! TF.SameCoordinates,0EA7A712-66D5-4987-9214-F4AEDCE7AAE5*
G04*
G04*
G04 #@! TF.FilePolarity,Negative*
G04*
G01*
G75*
%ADD44R,2.8448X1.3970*%
%ADD45R,2.6332X2.5732*%
%ADD46R,1.9032X1.3532*%
%ADD47R,1.3532X1.9032*%
%ADD48R,1.2732X2.0232*%
%ADD49R,1.4532X1.7532*%
%ADD50R,1.7532X1.4532*%
%ADD51R,2.1232X1.5032*%
%ADD52R,1.5032X2.1232*%
%ADD53R,2.3532X2.4532*%
%ADD54R,11.8832X2.3632*%
%ADD55R,9.0932X7.2132*%
%ADD56R,2.2332X4.0132*%
%ADD57R,1.7282X0.8532*%
%ADD58R,2.8032X3.3032*%
%ADD59R,1.7032X1.2032*%
%ADD60R,4.0032X1.2532*%
%ADD61R,9.6532X10.8732*%
%ADD62R,2.2032X3.2532*%
%ADD63R,1.1132X1.5932*%
%ADD64R,1.0932X1.6232*%
%ADD65R,3.1032X5.6032*%
%ADD66R,2.4532X2.3532*%
%ADD67R,1.7432X1.8032*%
%ADD68R,5.2632X4.0032*%
%ADD69R,1.2532X2.0032*%
%ADD70R,1.9832X1.2432*%
%ADD71R,1.5932X1.1132*%
%ADD72R,3.2532X2.2032*%
%ADD73C,3.7032*%
%ADD74C,1.8532*%
%ADD75C,4.5032*%
%ADD76R,3.5032X3.5032*%
%ADD77C,3.5032*%
%ADD78C,3.2032*%
%ADD79R,1.7032X1.7032*%
%ADD80C,1.7032*%
%ADD81C,2.9032*%
%ADD82R,2.2282X2.2282*%
%ADD83C,2.2282*%
D44*
X485000Y380000D02*
D03*
Y333264D02*
D03*
D45*
X1225000Y1140000D02*
D03*
Y1202400D02*
D03*
X1320000Y752600D02*
D03*
Y815000D02*
D03*
X1230000Y1762400D02*
D03*
Y1700000D02*
D03*
X1235000Y427400D02*
D03*
Y365000D02*
D03*
D46*
X485000Y240000D02*
D03*
Y270000D02*
D03*
D47*
X1660000Y645000D02*
D03*
X1630000D02*
D03*
X1610000Y1685000D02*
D03*
X1640000D02*
D03*
X1600000Y1170000D02*
D03*
X1630000D02*
D03*
X1615000Y390000D02*
D03*
X1645000D02*
D03*
D48*
X1050000Y900000D02*
D03*
X1022400D02*
D03*
X1050000Y410000D02*
D03*
X1022400D02*
D03*
X1016200Y1730000D02*
D03*
X1043800D02*
D03*
X1016200Y1780000D02*
D03*
X1043800D02*
D03*
X1022400Y1180000D02*
D03*
X1050000D02*
D03*
X1022400Y1230000D02*
D03*
X1050000D02*
D03*
X1022400Y940000D02*
D03*
X1050000D02*
D03*
X1022400Y455000D02*
D03*
X1050000D02*
D03*
D49*
X1130000Y320000D02*
D03*
X1164500D02*
D03*
X1140000Y1105000D02*
D03*
X1174500D02*
D03*
X1135000Y1670000D02*
D03*
X1169500D02*
D03*
D50*
X1375000Y1639500D02*
D03*
Y1605000D02*
D03*
X1350000Y1050000D02*
D03*
Y1015500D02*
D03*
X1270000Y790000D02*
D03*
Y824500D02*
D03*
X1455000Y620000D02*
D03*
Y585500D02*
D03*
X1355000Y244500D02*
D03*
Y210000D02*
D03*
D51*
X1340000Y1640000D02*
D03*
Y1613800D02*
D03*
X1315000Y1050000D02*
D03*
Y1023800D02*
D03*
X1420000Y620000D02*
D03*
Y593800D02*
D03*
X1320000Y241200D02*
D03*
Y215000D02*
D03*
D52*
X1373800Y760000D02*
D03*
X1400000D02*
D03*
X1376200Y435000D02*
D03*
X1350000D02*
D03*
X1371200Y1215000D02*
D03*
X1345000D02*
D03*
X1385000Y1830000D02*
D03*
X1358800D02*
D03*
D53*
X1375000Y665000D02*
D03*
Y709000D02*
D03*
X710000Y1818000D02*
D03*
Y1862000D02*
D03*
X630000Y856000D02*
D03*
Y900000D02*
D03*
D54*
X1505000Y813950D02*
D03*
X1475000Y1758950D02*
D03*
X1462850Y1189050D02*
D03*
X1465000Y385850D02*
D03*
D55*
X1505000Y768100D02*
D03*
X1475000Y1713100D02*
D03*
X1462850Y1143200D02*
D03*
X1465000Y340000D02*
D03*
D56*
X1527850Y674900D02*
D03*
X1482150D02*
D03*
X1452150Y1619900D02*
D03*
X1497850D02*
D03*
X1440000Y1050000D02*
D03*
X1485700D02*
D03*
X1442150Y246800D02*
D03*
X1487850D02*
D03*
D57*
X1092880Y1779050D02*
D03*
Y1766350D02*
D03*
Y1753650D02*
D03*
Y1740950D02*
D03*
X1147120D02*
D03*
Y1753650D02*
D03*
Y1766350D02*
D03*
Y1779050D02*
D03*
X1087880Y1214050D02*
D03*
Y1201350D02*
D03*
Y1188650D02*
D03*
Y1175950D02*
D03*
X1142120D02*
D03*
Y1188650D02*
D03*
Y1201350D02*
D03*
Y1214050D02*
D03*
X1147880Y874050D02*
D03*
Y861350D02*
D03*
Y848650D02*
D03*
Y835950D02*
D03*
X1202120D02*
D03*
Y848650D02*
D03*
Y861350D02*
D03*
Y874050D02*
D03*
X1087880Y424050D02*
D03*
Y411350D02*
D03*
Y398650D02*
D03*
Y385950D02*
D03*
X1142120D02*
D03*
Y398650D02*
D03*
Y411350D02*
D03*
Y424050D02*
D03*
D58*
X1120000Y1760000D02*
D03*
X1115000Y1195000D02*
D03*
X1175000Y855000D02*
D03*
X1115000Y405000D02*
D03*
D59*
X715000Y760000D02*
D03*
Y792000D02*
D03*
X640000Y1796000D02*
D03*
Y1764000D02*
D03*
D60*
X550000Y1794600D02*
D03*
Y1845400D02*
D03*
Y919600D02*
D03*
Y970400D02*
D03*
D61*
X450000Y1820000D02*
D03*
Y945000D02*
D03*
D62*
X550000Y1335000D02*
D03*
X622000D02*
D03*
X1635000Y1595000D02*
D03*
X1563000D02*
D03*
X1632000Y1070000D02*
D03*
X1560000D02*
D03*
D63*
X1110000Y1820000D02*
D03*
X1126400D02*
D03*
X1021800Y1830000D02*
D03*
X1038200D02*
D03*
X1108600Y1260000D02*
D03*
X1125000D02*
D03*
X1028600Y1280000D02*
D03*
X1045000D02*
D03*
X1026800Y1000000D02*
D03*
X1043200D02*
D03*
X1108600Y495000D02*
D03*
X1125000D02*
D03*
X1028600Y515000D02*
D03*
X1045000D02*
D03*
D64*
X1340300Y1920000D02*
D03*
X1359700D02*
D03*
X1330000Y1355000D02*
D03*
X1349400D02*
D03*
X1385300Y970000D02*
D03*
X1404700D02*
D03*
X1335000Y530000D02*
D03*
X1354400D02*
D03*
D65*
X1180000Y1870000D02*
D03*
X1279000D02*
D03*
X1171000Y1305000D02*
D03*
X1270000D02*
D03*
X1250000Y920000D02*
D03*
X1349000D02*
D03*
X1165500Y535000D02*
D03*
X1264500D02*
D03*
D66*
X1380000Y1710000D02*
D03*
X1336000D02*
D03*
X1370000Y1140000D02*
D03*
X1326000D02*
D03*
X1379000Y325000D02*
D03*
X1335000D02*
D03*
D67*
X1051000Y1889350D02*
D03*
Y1910650D02*
D03*
X1056000Y1334350D02*
D03*
Y1355650D02*
D03*
X1081000Y999350D02*
D03*
Y1020650D02*
D03*
X1056000Y564350D02*
D03*
Y585650D02*
D03*
D68*
X1090000Y1900000D02*
D03*
X1095000Y1345000D02*
D03*
X1120000Y1010000D02*
D03*
X1095000Y575000D02*
D03*
D69*
X1530000Y1855000D02*
D03*
X1561000D02*
D03*
X1514000Y1305000D02*
D03*
X1545000D02*
D03*
X1594000Y715000D02*
D03*
X1625000D02*
D03*
X1519500Y465000D02*
D03*
X1550500D02*
D03*
D70*
X1280000Y1770000D02*
D03*
Y1742600D02*
D03*
X1285000Y1207400D02*
D03*
Y1180000D02*
D03*
X1375000Y822400D02*
D03*
Y795000D02*
D03*
X1290000Y432400D02*
D03*
Y405000D02*
D03*
D71*
X1125000Y930000D02*
D03*
Y946400D02*
D03*
D72*
X1575000Y530000D02*
D03*
Y602000D02*
D03*
X1570000Y178000D02*
D03*
Y250000D02*
D03*
D73*
X1043091Y1527771D02*
D03*
X1045000Y715000D02*
D03*
X300651Y470109D02*
D03*
X225651D02*
D03*
X438090Y1038465D02*
D03*
X450000Y1905000D02*
D03*
X425000Y1335000D02*
D03*
Y1705000D02*
D03*
D74*
X1710000Y611600D02*
D03*
Y586200D02*
D03*
Y560800D02*
D03*
Y535400D02*
D03*
Y510000D02*
D03*
Y484600D02*
D03*
Y459200D02*
D03*
Y433800D02*
D03*
X307000Y90000D02*
D03*
X281600D02*
D03*
X256200D02*
D03*
X230800D02*
D03*
X205400D02*
D03*
X180000D02*
D03*
X154600D02*
D03*
X129200D02*
D03*
X1710000Y949200D02*
D03*
Y974600D02*
D03*
Y1000000D02*
D03*
Y1025400D02*
D03*
Y1050800D02*
D03*
Y1076200D02*
D03*
Y1101600D02*
D03*
Y1127000D02*
D03*
Y1473800D02*
D03*
Y1499200D02*
D03*
Y1524600D02*
D03*
Y1550000D02*
D03*
Y1575400D02*
D03*
Y1600800D02*
D03*
Y1626200D02*
D03*
Y1651600D02*
D03*
X567800Y90000D02*
D03*
X542400D02*
D03*
X517000D02*
D03*
X491600D02*
D03*
X466200D02*
D03*
X440800D02*
D03*
X415400D02*
D03*
X390000D02*
D03*
X1710000Y345400D02*
D03*
Y320000D02*
D03*
Y294600D02*
D03*
Y269200D02*
D03*
Y243800D02*
D03*
Y218400D02*
D03*
Y193000D02*
D03*
Y167600D02*
D03*
Y1209200D02*
D03*
Y1234600D02*
D03*
Y1260000D02*
D03*
Y1285400D02*
D03*
Y1310800D02*
D03*
Y1336200D02*
D03*
Y1361600D02*
D03*
Y1387000D02*
D03*
X1620800Y90000D02*
D03*
X1595400D02*
D03*
X1570000D02*
D03*
X1544600D02*
D03*
X1519200D02*
D03*
X1493800D02*
D03*
X1468400D02*
D03*
X1443000D02*
D03*
X1710000Y1729200D02*
D03*
Y1754600D02*
D03*
Y1780000D02*
D03*
Y1805400D02*
D03*
Y1830800D02*
D03*
Y1856200D02*
D03*
Y1881600D02*
D03*
Y1907000D02*
D03*
Y678400D02*
D03*
Y703800D02*
D03*
Y729200D02*
D03*
Y754600D02*
D03*
Y780000D02*
D03*
Y805400D02*
D03*
Y830800D02*
D03*
Y856200D02*
D03*
D75*
X40000Y40000D02*
D03*
X1760000D02*
D03*
Y1960000D02*
D03*
X40000D02*
D03*
D76*
X290000Y1730000D02*
D03*
Y1422700D02*
D03*
Y1120000D02*
D03*
Y810000D02*
D03*
D77*
X340000Y1730000D02*
D03*
X290000Y1830000D02*
D03*
X340000D02*
D03*
Y1422700D02*
D03*
X290000Y1522700D02*
D03*
X340000D02*
D03*
Y1120000D02*
D03*
X290000Y1220000D02*
D03*
X340000D02*
D03*
Y810000D02*
D03*
X290000Y910000D02*
D03*
X340000D02*
D03*
D78*
X200000Y1672700D02*
D03*
Y1887300D02*
D03*
Y1365400D02*
D03*
Y1580000D02*
D03*
Y1062700D02*
D03*
Y1277300D02*
D03*
Y752700D02*
D03*
Y967300D02*
D03*
D79*
X630000Y1125000D02*
D03*
Y1550000D02*
D03*
D80*
X530000Y1125000D02*
D03*
Y1550000D02*
D03*
D81*
X880000Y1743000D02*
D03*
Y1790000D02*
D03*
Y1837000D02*
D03*
X885000Y1193000D02*
D03*
Y1240000D02*
D03*
Y1287000D02*
D03*
X880000Y903000D02*
D03*
Y950000D02*
D03*
Y997000D02*
D03*
Y423000D02*
D03*
Y470000D02*
D03*
Y517000D02*
D03*
D82*
X1090000Y1670000D02*
D03*
Y1105000D02*
D03*
X1095400Y840000D02*
D03*
X1080000Y320000D02*
D03*
D83*
X1064600Y1670000D02*
D03*
Y1105000D02*
D03*
X1070000Y840000D02*
D03*
X1054600Y320000D02*
D03*
M02*
