G04*
G04 #@! TF.GenerationSoftware,Altium Limited,Altium Designer,23.1.1 (15)*
G04*
G04 Layer_Color=65535*
%FSLAX44Y44*%
%MOMM*%
G71*
G04*
G04 #@! TF.SameCoordinates,0EA7A712-66D5-4987-9214-F4AEDCE7AAE5*
G04*
G04*
G04 #@! TF.FilePolarity,Positive*
G04*
G01*
G75*
%ADD10C,0.2000*%
%ADD11C,0.1000*%
%ADD12C,0.1524*%
%ADD13C,0.1270*%
%ADD14C,0.2540*%
D10*
X1225500Y1218400D02*
G03*
X1225500Y1218400I-500J0D01*
G01*
X1176000Y320000D02*
G03*
X1176000Y320000I-500J0D01*
G01*
X1186000Y1105000D02*
G03*
X1186000Y1105000I-500J0D01*
G01*
X1181000Y1670000D02*
G03*
X1181000Y1670000I-500J0D01*
G01*
X1375500Y1594000D02*
G03*
X1375500Y1594000I-500J0D01*
G01*
X1350500Y1004500D02*
G03*
X1350500Y1004500I-500J0D01*
G01*
X1320500Y831000D02*
G03*
X1320500Y831000I-500J0D01*
G01*
X1270500Y835500D02*
G03*
X1270500Y835500I-500J0D01*
G01*
X1455500Y574500D02*
G03*
X1455500Y574500I-500J0D01*
G01*
X1355500Y199000D02*
G03*
X1355500Y199000I-500J0D01*
G01*
X1482150Y644000D02*
G03*
X1482150Y643000I0J-500D01*
G01*
D02*
G03*
X1482150Y644000I0J500D01*
G01*
D02*
G03*
X1482150Y643000I0J-500D01*
G01*
X574550Y1792500D02*
G03*
X575550Y1792500I500J0D01*
G01*
D02*
G03*
X574550Y1792500I-500J0D01*
G01*
D02*
G03*
X575550Y1792500I500J0D01*
G01*
X690000Y1125000D02*
G03*
X690000Y1125000I-110000J0D01*
G01*
Y1550000D02*
G03*
X690000Y1550000I-110000J0D01*
G01*
X574550Y917500D02*
G03*
X575550Y917500I500J0D01*
G01*
D02*
G03*
X574550Y917500I-500J0D01*
G01*
D02*
G03*
X575550Y917500I500J0D01*
G01*
X924000Y1744000D02*
G03*
X924000Y1742000I0J-1000D01*
G01*
D02*
G03*
X924000Y1744000I0J1000D01*
G01*
X1452150Y1589000D02*
G03*
X1452150Y1588000I0J-500D01*
G01*
D02*
G03*
X1452150Y1589000I0J500D01*
G01*
D02*
G03*
X1452150Y1588000I0J-500D01*
G01*
X1230500Y1778400D02*
G03*
X1230500Y1778400I-500J0D01*
G01*
X929000Y1194000D02*
G03*
X929000Y1192000I0J-1000D01*
G01*
D02*
G03*
X929000Y1194000I0J1000D01*
G01*
X1440000Y1019100D02*
G03*
X1440000Y1018100I0J-500D01*
G01*
D02*
G03*
X1440000Y1019100I0J500D01*
G01*
D02*
G03*
X1440000Y1018100I0J-500D01*
G01*
X924000Y904000D02*
G03*
X924000Y902000I0J-1000D01*
G01*
D02*
G03*
X924000Y904000I0J1000D01*
G01*
Y424000D02*
G03*
X924000Y422000I0J-1000D01*
G01*
D02*
G03*
X924000Y424000I0J1000D01*
G01*
X1442150Y215900D02*
G03*
X1442150Y214900I0J-500D01*
G01*
D02*
G03*
X1442150Y215900I0J500D01*
G01*
D02*
G03*
X1442150Y214900I0J-500D01*
G01*
X1235500Y443400D02*
G03*
X1235500Y443400I-500J0D01*
G01*
X473000Y230750D02*
Y270000D01*
Y230750D02*
X497000D01*
Y270000D01*
X1630000Y633000D02*
X1669250D01*
Y657000D01*
X1630000D02*
X1669250D01*
X1036200Y893000D02*
Y907000D01*
Y403000D02*
Y417000D01*
X1333000Y1626900D02*
X1347000D01*
X1308000Y1036900D02*
X1322000D01*
X1386900Y753000D02*
Y767000D01*
X1356900Y660320D02*
Y713680D01*
X1393100Y660320D02*
Y719750D01*
X1413000Y606900D02*
X1427000D01*
X1313000Y228100D02*
X1327000D01*
X1085250Y1785800D02*
X1100500D01*
X1363100Y428000D02*
Y442000D01*
X1358100Y1208000D02*
Y1222000D01*
X1371900Y1823000D02*
Y1837000D01*
X703000Y751000D02*
X727000D01*
Y801000D01*
X703000D02*
X727000D01*
X703000Y751000D02*
Y801000D01*
X540000Y1364220D02*
X625700D01*
X546300Y1305780D02*
X625700D01*
X691880Y1812980D02*
Y1867020D01*
X728120Y1812980D02*
Y1872750D01*
X628000Y1755000D02*
Y1805000D01*
X652000D01*
Y1755000D02*
Y1805000D01*
X628000Y1755000D02*
X652000D01*
X611880Y850980D02*
Y905020D01*
X648120Y850980D02*
Y910750D01*
X1118200Y1814750D02*
Y1825250D01*
X1559300Y1565780D02*
X1645000D01*
X1559300Y1624220D02*
X1638700D01*
X1350000Y1914750D02*
Y1925250D01*
X1331320Y1691900D02*
X1390750D01*
X1331320Y1728100D02*
X1384680D01*
X1057300Y1878500D02*
X1073300D01*
X1057300D02*
X1073300D01*
X1055300Y1921500D02*
X1071300D01*
X1055300D02*
X1071300D01*
X1545500Y1848000D02*
Y1862000D01*
X1273000Y1756300D02*
X1287000D01*
X1030000Y1723000D02*
Y1737000D01*
Y1773000D02*
Y1787000D01*
Y1824750D02*
Y1835250D01*
X1045900Y1682700D02*
X1090000D01*
X1045900Y1655450D02*
Y1682700D01*
Y1655450D02*
X1105200D01*
Y1670000D01*
X1610000Y1697000D02*
X1649250D01*
Y1673000D02*
Y1697000D01*
X1610000Y1673000D02*
X1649250D01*
X1116800Y1254750D02*
Y1265250D01*
X1556300Y1040780D02*
X1642000D01*
X1556300Y1099220D02*
X1635700D01*
X1339700Y1349750D02*
Y1360250D01*
X1080250Y1220800D02*
X1095500D01*
X1321320Y1121900D02*
X1380750D01*
X1321320Y1158100D02*
X1374680D01*
X1062300Y1323500D02*
X1078300D01*
X1062300D02*
X1078300D01*
X1060300Y1366500D02*
X1076300D01*
X1060300D02*
X1076300D01*
X1529500Y1298000D02*
Y1312000D01*
X1278000Y1193700D02*
X1292000D01*
X1036200Y1173000D02*
Y1187000D01*
Y1223000D02*
Y1237000D01*
X1036800Y1274750D02*
Y1285250D01*
X1045900Y1117700D02*
X1090000D01*
X1045900Y1090450D02*
Y1117700D01*
Y1090450D02*
X1105200D01*
Y1105000D01*
X1600000Y1182000D02*
X1639250D01*
Y1158000D02*
Y1182000D01*
X1600000Y1158000D02*
X1639250D01*
X1119750Y938200D02*
X1130250D01*
X1545780Y520000D02*
Y605700D01*
X1604220Y526300D02*
Y605700D01*
X1395000Y964750D02*
Y975250D01*
X1140250Y880800D02*
X1155500D01*
X1087300Y988500D02*
X1103300D01*
X1087300D02*
X1103300D01*
X1085300Y1031500D02*
X1101300D01*
X1085300D02*
X1101300D01*
X1609500Y708000D02*
Y722000D01*
X1368000Y808700D02*
X1382000D01*
X1036200Y933000D02*
Y947000D01*
X1035000Y994750D02*
Y1005250D01*
X1051300Y852700D02*
X1095400D01*
X1051300Y825450D02*
Y852700D01*
Y825450D02*
X1110600D01*
Y840000D01*
X1116800Y489750D02*
Y500250D01*
X1540780Y168000D02*
Y253700D01*
X1599220Y174300D02*
Y253700D01*
X1344700Y524750D02*
Y535250D01*
X1080250Y430800D02*
X1095500D01*
X1330320Y306900D02*
X1389750D01*
X1330320Y343100D02*
X1383680D01*
X1062300Y553500D02*
X1078300D01*
X1062300D02*
X1078300D01*
X1060300Y596500D02*
X1076300D01*
X1060300D02*
X1076300D01*
X1535000Y458000D02*
Y472000D01*
X1283000Y418700D02*
X1297000D01*
X1036200Y448000D02*
Y462000D01*
X1036800Y509750D02*
Y520250D01*
X1035900Y332700D02*
X1080000D01*
X1035900Y305450D02*
Y332700D01*
Y305450D02*
X1095200D01*
Y320000D01*
X1615000Y402000D02*
X1654250D01*
Y378000D02*
Y402000D01*
X1615000Y378000D02*
X1654250D01*
D11*
X1039300Y1890000D02*
G03*
X1039300Y1889000I0J-500D01*
G01*
D02*
G03*
X1039300Y1890000I0J500D01*
G01*
X1044300Y1335000D02*
G03*
X1044300Y1334000I0J-500D01*
G01*
D02*
G03*
X1044300Y1335000I0J500D01*
G01*
X1069300Y1000000D02*
G03*
X1069300Y999000I0J-500D01*
G01*
D02*
G03*
X1069300Y1000000I0J500D01*
G01*
X1044300Y565000D02*
G03*
X1044300Y564000I0J-500D01*
G01*
D02*
G03*
X1044300Y565000I0J500D01*
G01*
X1203500Y1134700D02*
Y1207700D01*
X1246500Y1134700D02*
Y1207700D01*
X1677500Y418800D02*
X1742500D01*
Y626600D01*
X1677500D02*
X1742500D01*
X1677500Y418800D02*
Y626600D01*
X1298500Y747300D02*
Y820300D01*
X1341500Y747300D02*
Y820300D01*
X1555800Y713650D02*
Y797500D01*
Y713650D02*
Y797500D01*
X1454200Y713650D02*
X1555800D01*
X1454200D02*
X1555800D01*
X1454200D02*
Y797500D01*
Y713650D02*
Y797500D01*
X114200Y57500D02*
X322000D01*
X114200D02*
Y122500D01*
X322000D01*
Y57500D02*
Y122500D01*
X509000Y1769200D02*
Y1870800D01*
Y894200D02*
Y995800D01*
X1677500Y934200D02*
Y1142000D01*
X1742500D01*
Y934200D02*
Y1142000D01*
X1677500Y934200D02*
X1742500D01*
X1677500Y1458800D02*
Y1666600D01*
X1742500D01*
Y1458800D02*
Y1666600D01*
X1677500Y1458800D02*
X1742500D01*
X375000Y57500D02*
X582800D01*
X375000D02*
Y122500D01*
X582800D01*
Y57500D02*
Y122500D01*
X1742500Y152600D02*
Y360400D01*
X1677500Y152600D02*
X1742500D01*
X1677500D02*
Y360400D01*
X1742500D01*
X1677500Y1194200D02*
Y1402000D01*
X1742500D01*
Y1194200D02*
Y1402000D01*
X1677500Y1194200D02*
X1742500D01*
X1428000Y57500D02*
X1635800D01*
X1428000D02*
Y122500D01*
X1635800D01*
Y57500D02*
Y122500D01*
X1677500Y1714200D02*
Y1922000D01*
X1742500D01*
Y1714200D02*
Y1922000D01*
X1677500Y1714200D02*
X1742500D01*
X1677500Y663400D02*
Y871200D01*
X1742500D01*
Y663400D02*
Y871200D01*
X1677500Y663400D02*
X1742500D01*
X840500Y1855000D02*
X919500D01*
Y1725000D02*
Y1855000D01*
X840500Y1725000D02*
X919500D01*
X840500D02*
Y1855000D01*
X1424200Y1658650D02*
Y1742500D01*
Y1658650D02*
Y1742500D01*
Y1658650D02*
X1525800D01*
X1424200D02*
X1525800D01*
Y1742500D01*
Y1658650D02*
Y1742500D01*
X1251500Y1694700D02*
Y1767700D01*
X1208500Y1694700D02*
Y1767700D01*
X845500Y1305000D02*
X924500D01*
Y1175000D02*
Y1305000D01*
X845500Y1175000D02*
X924500D01*
X845500D02*
Y1305000D01*
X1412050Y1088750D02*
Y1172600D01*
Y1088750D02*
Y1172600D01*
Y1088750D02*
X1513650D01*
X1412050D02*
X1513650D01*
Y1172600D01*
Y1088750D02*
Y1172600D01*
X840500Y1015000D02*
X919500D01*
Y885000D02*
Y1015000D01*
X840500Y885000D02*
X919500D01*
X840500D02*
Y1015000D01*
Y535000D02*
X919500D01*
Y405000D02*
Y535000D01*
X840500Y405000D02*
X919500D01*
X840500D02*
Y535000D01*
X1414200Y285550D02*
Y369400D01*
Y285550D02*
Y369400D01*
Y285550D02*
X1515800D01*
X1414200D02*
X1515800D01*
Y369400D01*
Y285550D02*
Y369400D01*
X1256500Y359700D02*
Y432700D01*
X1213500Y359700D02*
Y432700D01*
D12*
X471792Y342662D02*
Y370602D01*
X498208Y342662D02*
Y370602D01*
D13*
X62050Y1660900D02*
Y1899100D01*
X285000Y1640000D02*
X295000D01*
X285000D02*
X290000Y1650000D01*
X295000Y1640000D01*
X62050Y1353600D02*
Y1591800D01*
X285000Y1332700D02*
X295000D01*
X285000D02*
X290000Y1342700D01*
X295000Y1332700D01*
X62050Y1050900D02*
Y1289100D01*
X285000Y1030000D02*
X295000D01*
X285000D02*
X290000Y1040000D01*
X295000Y1030000D01*
X62050Y740900D02*
Y979100D01*
X285000Y720000D02*
X295000D01*
X285000D02*
X290000Y730000D01*
X295000Y720000D01*
X1169500Y1810000D02*
X1289500D01*
X1169500Y1930000D02*
X1289500D01*
X1160500Y1245000D02*
X1280500D01*
X1160500Y1365000D02*
X1280500D01*
X1239500Y860000D02*
X1359500D01*
X1239500Y980000D02*
X1359500D01*
X1155000Y475000D02*
X1275000D01*
X1155000Y595000D02*
X1275000D01*
D14*
X1211113Y1235078D02*
X1208574Y1237617D01*
X1203495D01*
X1200956Y1235078D01*
Y1224922D01*
X1203495Y1222383D01*
X1208574D01*
X1211113Y1224922D01*
X1216191Y1222383D02*
X1221270D01*
X1218730D01*
Y1237617D01*
X1216191Y1235078D01*
X1239044Y1222383D02*
X1228887D01*
X1239044Y1232539D01*
Y1235078D01*
X1236505Y1237617D01*
X1231426D01*
X1228887Y1235078D01*
X382540Y1932775D02*
Y1917540D01*
X387618Y1922618D01*
X392697Y1917540D01*
Y1932775D01*
X397775Y1930236D02*
X400314Y1932775D01*
X405393D01*
X407932Y1930236D01*
Y1927697D01*
X405393Y1925157D01*
X407932Y1922618D01*
Y1920079D01*
X405393Y1917540D01*
X400314D01*
X397775Y1920079D01*
Y1922618D01*
X400314Y1925157D01*
X397775Y1927697D01*
Y1930236D01*
X400314Y1925157D02*
X405393D01*
X302540Y1872775D02*
Y1857540D01*
X307618Y1862618D01*
X312697Y1857540D01*
Y1872775D01*
X317775Y1870236D02*
X320314Y1872775D01*
X325393D01*
X327932Y1870236D01*
Y1867697D01*
X325393Y1865157D01*
X327932Y1862618D01*
Y1860079D01*
X325393Y1857540D01*
X320314D01*
X317775Y1860079D01*
Y1862618D01*
X320314Y1865157D01*
X317775Y1867697D01*
Y1870236D01*
X320314Y1865157D02*
X325393D01*
X300398Y1696734D02*
Y1681499D01*
X305476Y1686578D01*
X310555Y1681499D01*
Y1696734D01*
X315633D02*
X325790D01*
Y1694195D01*
X315633Y1684039D01*
Y1681499D01*
X302943Y1491236D02*
Y1476001D01*
X308021Y1481079D01*
X313099Y1476001D01*
Y1491236D01*
X318178D02*
X328334D01*
Y1488697D01*
X318178Y1478540D01*
Y1476001D01*
X992540Y1517775D02*
Y1502540D01*
X997618Y1507618D01*
X1002697Y1502540D01*
Y1517775D01*
X1017932D02*
X1012853Y1515236D01*
X1007775Y1510157D01*
Y1505079D01*
X1010314Y1502540D01*
X1015393D01*
X1017932Y1505079D01*
Y1507618D01*
X1015393Y1510157D01*
X1007775D01*
X302540Y1382775D02*
Y1367540D01*
X307618Y1372618D01*
X312697Y1367540D01*
Y1382775D01*
X327932D02*
X322853Y1380236D01*
X317775Y1375157D01*
Y1370079D01*
X320314Y1367540D01*
X325393D01*
X327932Y1370079D01*
Y1372618D01*
X325393Y1375157D01*
X317775D01*
X417540Y1097775D02*
Y1082540D01*
X422618Y1087618D01*
X427697Y1082540D01*
Y1097775D01*
X442932D02*
X432775D01*
Y1090157D01*
X437853Y1092697D01*
X440393D01*
X442932Y1090157D01*
Y1085079D01*
X440393Y1082540D01*
X435314D01*
X432775Y1085079D01*
X302540Y1187775D02*
Y1172540D01*
X307618Y1177618D01*
X312697Y1172540D01*
Y1187775D01*
X327932D02*
X317775D01*
Y1180157D01*
X322853Y1182697D01*
X325393D01*
X327932Y1180157D01*
Y1175079D01*
X325393Y1172540D01*
X320314D01*
X317775Y1175079D01*
X302540Y1092775D02*
Y1077540D01*
X307618Y1082618D01*
X312697Y1077540D01*
Y1092775D01*
X325393Y1077540D02*
Y1092775D01*
X317775Y1085157D01*
X327932D01*
X302540Y877775D02*
Y862540D01*
X307618Y867618D01*
X312697Y862540D01*
Y877775D01*
X325393Y862540D02*
Y877775D01*
X317775Y870157D01*
X327932D01*
X997540Y702775D02*
Y687540D01*
X1002618Y692618D01*
X1007697Y687540D01*
Y702775D01*
X1012775Y700236D02*
X1015314Y702775D01*
X1020393D01*
X1022932Y700236D01*
Y697697D01*
X1020393Y695157D01*
X1017853D01*
X1020393D01*
X1022932Y692618D01*
Y690079D01*
X1020393Y687540D01*
X1015314D01*
X1012775Y690079D01*
X302540Y767775D02*
Y752540D01*
X307618Y757618D01*
X312697Y752540D01*
Y767775D01*
X317775Y765236D02*
X320314Y767775D01*
X325393D01*
X327932Y765236D01*
Y762697D01*
X325393Y760157D01*
X322853D01*
X325393D01*
X327932Y757618D01*
Y755079D01*
X325393Y752540D01*
X320314D01*
X317775Y755079D01*
X182540Y452775D02*
Y437540D01*
X187618Y442618D01*
X192697Y437540D01*
Y452775D01*
X207932Y437540D02*
X197775D01*
X207932Y447697D01*
Y450236D01*
X205393Y452775D01*
X200314D01*
X197775Y450236D01*
X382540Y1312775D02*
Y1297540D01*
X387618Y1302618D01*
X392697Y1297540D01*
Y1312775D01*
X407932Y1297540D02*
X397775D01*
X407932Y1307697D01*
Y1310236D01*
X405393Y1312775D01*
X400314D01*
X397775Y1310236D01*
X402540Y1682775D02*
Y1667540D01*
X407618Y1672618D01*
X412697Y1667540D01*
Y1682775D01*
X417775Y1667540D02*
X422853D01*
X420314D01*
Y1682775D01*
X417775Y1680236D01*
X322540Y452775D02*
Y437540D01*
X327618Y442618D01*
X332697Y437540D01*
Y452775D01*
X337775Y437540D02*
X342853D01*
X340314D01*
Y452775D01*
X337775Y450236D01*
X387853Y912460D02*
X372618D01*
Y904843D01*
X375158Y902303D01*
X377697D01*
X380236Y904843D01*
Y912460D01*
Y904843D01*
X382775Y902303D01*
X385314D01*
X387853Y904843D01*
Y912460D01*
X382775Y894686D02*
Y889607D01*
X380236Y887068D01*
X372618D01*
Y894686D01*
X375158Y897225D01*
X377697Y894686D01*
Y887068D01*
X385314Y879451D02*
X382775D01*
Y881990D01*
Y876911D01*
Y879451D01*
X375158D01*
X372618Y876911D01*
X385314Y866755D02*
X382775D01*
Y869294D01*
Y864216D01*
Y866755D01*
X375158D01*
X372618Y864216D01*
Y848980D02*
Y854059D01*
X375158Y856598D01*
X380236D01*
X382775Y854059D01*
Y848980D01*
X380236Y846441D01*
X377697D01*
Y856598D01*
X382775Y841363D02*
X372618D01*
X377697D01*
X380236Y838824D01*
X382775Y836285D01*
Y833745D01*
Y826128D02*
X375158D01*
X372618Y823589D01*
Y815971D01*
X370079D01*
X367540Y818510D01*
Y821050D01*
X372618Y815971D02*
X382775D01*
X372618Y785501D02*
Y795658D01*
X382775Y785501D01*
X385314D01*
X387853Y788040D01*
Y793119D01*
X385314Y795658D01*
X394758Y1216327D02*
X397297Y1218866D01*
Y1223944D01*
X394758Y1226483D01*
X392219D01*
X389679Y1223944D01*
Y1218866D01*
X387140Y1216327D01*
X384601D01*
X382062Y1218866D01*
Y1223944D01*
X384601Y1226483D01*
X392219Y1211248D02*
X384601D01*
X382062Y1208709D01*
X384601Y1206170D01*
X382062Y1203631D01*
X384601Y1201092D01*
X392219D01*
X382062Y1196013D02*
Y1190935D01*
Y1193474D01*
X392219D01*
Y1196013D01*
X394758Y1180778D02*
X392219D01*
Y1183317D01*
Y1178239D01*
Y1180778D01*
X384601D01*
X382062Y1178239D01*
X392219Y1160465D02*
Y1168082D01*
X389679Y1170621D01*
X384601D01*
X382062Y1168082D01*
Y1160465D01*
X397297Y1155387D02*
X382062D01*
X389679D01*
X392219Y1152847D01*
Y1147769D01*
X389679Y1145230D01*
X382062D01*
Y1124916D02*
Y1119838D01*
Y1122377D01*
X397297D01*
X394758Y1124916D01*
X397375Y1526483D02*
X382140D01*
Y1518866D01*
X384679Y1516327D01*
X387219D01*
X389758Y1518866D01*
Y1526483D01*
Y1518866D01*
X392297Y1516327D01*
X394836D01*
X397375Y1518866D01*
Y1526483D01*
X392297Y1508709D02*
Y1503631D01*
X389758Y1501092D01*
X382140D01*
Y1508709D01*
X384679Y1511248D01*
X387219Y1508709D01*
Y1501092D01*
X394836Y1493474D02*
X392297D01*
Y1496013D01*
Y1490935D01*
Y1493474D01*
X384679D01*
X382140Y1490935D01*
X394836Y1480778D02*
X392297D01*
Y1483317D01*
Y1478239D01*
Y1480778D01*
X384679D01*
X382140Y1478239D01*
Y1463004D02*
Y1468082D01*
X384679Y1470621D01*
X389758D01*
X392297Y1468082D01*
Y1463004D01*
X389758Y1460465D01*
X387219D01*
Y1470621D01*
X392297Y1455387D02*
X382140D01*
X387219D01*
X389758Y1452847D01*
X392297Y1450308D01*
Y1447769D01*
Y1440151D02*
X384679D01*
X382140Y1437612D01*
Y1429995D01*
X379601D01*
X377062Y1432534D01*
Y1435073D01*
X382140Y1429995D02*
X392297D01*
X382140Y1409681D02*
Y1404603D01*
Y1407142D01*
X397375D01*
X394836Y1409681D01*
X384758Y1826327D02*
X387297Y1828866D01*
Y1833944D01*
X384758Y1836483D01*
X382219D01*
X379680Y1833944D01*
Y1828866D01*
X377140Y1826327D01*
X374601D01*
X372062Y1828866D01*
Y1833944D01*
X374601Y1836483D01*
X382219Y1821248D02*
X374601D01*
X372062Y1818709D01*
X374601Y1816170D01*
X372062Y1813631D01*
X374601Y1811092D01*
X382219D01*
X372062Y1806013D02*
Y1800935D01*
Y1803474D01*
X382219D01*
Y1806013D01*
X384758Y1790778D02*
X382219D01*
Y1793317D01*
Y1788239D01*
Y1790778D01*
X374601D01*
X372062Y1788239D01*
X382219Y1770465D02*
Y1778082D01*
X379680Y1780621D01*
X374601D01*
X372062Y1778082D01*
Y1770465D01*
X387297Y1765387D02*
X372062D01*
X379680D01*
X382219Y1762847D01*
Y1757769D01*
X379680Y1755230D01*
X372062D01*
Y1734916D02*
Y1729838D01*
Y1732377D01*
X387297D01*
X384758Y1734916D01*
X1632225Y227540D02*
X1642382D01*
X1647460Y232618D01*
X1642382Y237697D01*
X1632225D01*
X1647460Y242775D02*
X1637303D01*
X1632225Y247853D01*
X1637303Y252932D01*
X1647460D01*
X1639843D01*
Y242775D01*
X1647460Y258010D02*
X1632225D01*
Y265628D01*
X1634764Y268167D01*
X1639843D01*
X1642382Y265628D01*
Y258010D01*
Y263088D02*
X1647460Y268167D01*
Y280863D02*
X1632225D01*
X1639843Y273245D01*
Y283402D01*
X1634764Y313872D02*
X1632225Y311333D01*
Y306255D01*
X1634764Y303715D01*
X1644921D01*
X1647460Y306255D01*
Y311333D01*
X1644921Y313872D01*
X1639843D01*
Y308794D01*
X1647460Y321490D02*
Y326568D01*
X1644921Y329107D01*
X1639843D01*
X1637303Y326568D01*
Y321490D01*
X1639843Y318950D01*
X1644921D01*
X1647460Y321490D01*
Y336725D02*
Y341803D01*
X1644921Y344342D01*
X1639843D01*
X1637303Y341803D01*
Y336725D01*
X1639843Y334185D01*
X1644921D01*
X1647460Y336725D01*
X1632225Y359577D02*
X1647460D01*
Y351960D01*
X1644921Y349421D01*
X1639843D01*
X1637303Y351960D01*
Y359577D01*
X1647225Y697540D02*
X1657382D01*
X1662460Y702618D01*
X1657382Y707697D01*
X1647225D01*
X1662460Y712775D02*
X1652303D01*
X1647225Y717853D01*
X1652303Y722932D01*
X1662460D01*
X1654842D01*
Y712775D01*
X1662460Y728010D02*
X1647225D01*
Y735628D01*
X1649764Y738167D01*
X1654842D01*
X1657382Y735628D01*
Y728010D01*
Y733089D02*
X1662460Y738167D01*
X1649764Y743245D02*
X1647225Y745784D01*
Y750863D01*
X1649764Y753402D01*
X1652303D01*
X1654842Y750863D01*
Y748324D01*
Y750863D01*
X1657382Y753402D01*
X1659921D01*
X1662460Y750863D01*
Y745784D01*
X1659921Y743245D01*
X1649764Y783872D02*
X1647225Y781333D01*
Y776255D01*
X1649764Y773715D01*
X1659921D01*
X1662460Y776255D01*
Y781333D01*
X1659921Y783872D01*
X1654842D01*
Y778794D01*
X1662460Y791490D02*
Y796568D01*
X1659921Y799107D01*
X1654842D01*
X1652303Y796568D01*
Y791490D01*
X1654842Y788950D01*
X1659921D01*
X1662460Y791490D01*
Y806725D02*
Y811803D01*
X1659921Y814342D01*
X1654842D01*
X1652303Y811803D01*
Y806725D01*
X1654842Y804185D01*
X1659921D01*
X1662460Y806725D01*
X1647225Y829577D02*
X1662460D01*
Y821960D01*
X1659921Y819421D01*
X1654842D01*
X1652303Y821960D01*
Y829577D01*
X1622225Y1222540D02*
X1632382D01*
X1637460Y1227618D01*
X1632382Y1232697D01*
X1622225D01*
X1637460Y1237775D02*
X1627303D01*
X1622225Y1242853D01*
X1627303Y1247932D01*
X1637460D01*
X1629843D01*
Y1237775D01*
X1637460Y1253010D02*
X1622225D01*
Y1260628D01*
X1624764Y1263167D01*
X1629843D01*
X1632382Y1260628D01*
Y1253010D01*
Y1258089D02*
X1637460Y1263167D01*
Y1278402D02*
Y1268245D01*
X1627303Y1278402D01*
X1624764D01*
X1622225Y1275863D01*
Y1270784D01*
X1624764Y1268245D01*
Y1308872D02*
X1622225Y1306333D01*
Y1301254D01*
X1624764Y1298715D01*
X1634921D01*
X1637460Y1301254D01*
Y1306333D01*
X1634921Y1308872D01*
X1629843D01*
Y1303794D01*
X1637460Y1316490D02*
Y1321568D01*
X1634921Y1324107D01*
X1629843D01*
X1627303Y1321568D01*
Y1316490D01*
X1629843Y1313950D01*
X1634921D01*
X1637460Y1316490D01*
Y1331725D02*
Y1336803D01*
X1634921Y1339342D01*
X1629843D01*
X1627303Y1336803D01*
Y1331725D01*
X1629843Y1329185D01*
X1634921D01*
X1637460Y1331725D01*
X1622225Y1354577D02*
X1637460D01*
Y1346960D01*
X1634921Y1344421D01*
X1629843D01*
X1627303Y1346960D01*
Y1354577D01*
X1632225Y1732540D02*
X1642382D01*
X1647460Y1737618D01*
X1642382Y1742697D01*
X1632225D01*
X1647460Y1747775D02*
X1637303D01*
X1632225Y1752853D01*
X1637303Y1757932D01*
X1647460D01*
X1639843D01*
Y1747775D01*
X1647460Y1763010D02*
X1632225D01*
Y1770628D01*
X1634764Y1773167D01*
X1639843D01*
X1642382Y1770628D01*
Y1763010D01*
Y1768089D02*
X1647460Y1773167D01*
Y1778245D02*
Y1783324D01*
Y1780784D01*
X1632225D01*
X1634764Y1778245D01*
Y1816333D02*
X1632225Y1813794D01*
Y1808715D01*
X1634764Y1806176D01*
X1644921D01*
X1647460Y1808715D01*
Y1813794D01*
X1644921Y1816333D01*
X1639843D01*
Y1811254D01*
X1647460Y1823950D02*
Y1829029D01*
X1644921Y1831568D01*
X1639843D01*
X1637303Y1829029D01*
Y1823950D01*
X1639843Y1821411D01*
X1644921D01*
X1647460Y1823950D01*
Y1839185D02*
Y1844264D01*
X1644921Y1846803D01*
X1639843D01*
X1637303Y1844264D01*
Y1839185D01*
X1639843Y1836646D01*
X1644921D01*
X1647460Y1839185D01*
X1632225Y1862038D02*
X1647460D01*
Y1854421D01*
X1644921Y1851881D01*
X1639843D01*
X1637303Y1854421D01*
Y1862038D01*
X542697Y257540D02*
X532540D01*
X542697Y267697D01*
Y270236D01*
X540158Y272775D01*
X535079D01*
X532540Y270236D01*
X555393Y257540D02*
Y272775D01*
X547775Y265158D01*
X557932D01*
X563010Y272775D02*
Y262618D01*
X568088Y257540D01*
X573167Y262618D01*
Y272775D01*
X603637Y270236D02*
X601098Y272775D01*
X596020D01*
X593480Y270236D01*
Y260079D01*
X596020Y257540D01*
X601098D01*
X603637Y260079D01*
Y265158D01*
X598559D01*
X611255Y257540D02*
X616333D01*
X618872Y260079D01*
Y265158D01*
X616333Y267697D01*
X611255D01*
X608715Y265158D01*
Y260079D01*
X611255Y257540D01*
X626490D02*
X631568D01*
X634107Y260079D01*
Y265158D01*
X631568Y267697D01*
X626490D01*
X623950Y265158D01*
Y260079D01*
X626490Y257540D01*
X649342Y272775D02*
Y257540D01*
X641725D01*
X639185Y260079D01*
Y265158D01*
X641725Y267697D01*
X649342D01*
X997697Y262775D02*
X987540D01*
Y255158D01*
X992618Y257697D01*
X995157D01*
X997697Y255158D01*
Y250079D01*
X995157Y247540D01*
X990079D01*
X987540Y250079D01*
X1002775Y262775D02*
Y252618D01*
X1007853Y247540D01*
X1012932Y252618D01*
Y262775D01*
X1018010Y252618D02*
X1028167D01*
X1018010Y257697D02*
X1028167D01*
X1033245Y260236D02*
X1035784Y262775D01*
X1040863D01*
X1043402Y260236D01*
Y257697D01*
X1040863Y255158D01*
X1038324D01*
X1040863D01*
X1043402Y252618D01*
Y250079D01*
X1040863Y247540D01*
X1035784D01*
X1033245Y250079D01*
X1048480Y247540D02*
Y250079D01*
X1051020D01*
Y247540D01*
X1048480D01*
X1061176Y260236D02*
X1063715Y262775D01*
X1068794D01*
X1071333Y260236D01*
Y257697D01*
X1068794Y255158D01*
X1066255D01*
X1068794D01*
X1071333Y252618D01*
Y250079D01*
X1068794Y247540D01*
X1063715D01*
X1061176Y250079D01*
X1076411Y247540D02*
Y262775D01*
Y252618D02*
X1084029Y257697D01*
X1076411Y252618D02*
X1084029Y247540D01*
X1106881Y262775D02*
Y247540D01*
X1114499Y262775D02*
Y247540D01*
X1137352D02*
X1142430D01*
X1139891D01*
Y262775D01*
X1137352Y260236D01*
X1160204Y247540D02*
X1150047D01*
X1160204Y257697D01*
Y260236D01*
X1157665Y262775D01*
X1152587D01*
X1150047Y260236D01*
X1165283Y262775D02*
Y252618D01*
X1170361Y247540D01*
X1175439Y252618D01*
Y262775D01*
X1180518Y252618D02*
X1190674D01*
X1180518Y257697D02*
X1190674D01*
X1195753Y247540D02*
X1200831D01*
X1198292D01*
Y262775D01*
X1195753Y260236D01*
X1208448Y247540D02*
Y250079D01*
X1210988D01*
Y247540D01*
X1208448D01*
X1221144D02*
X1226223D01*
X1223684D01*
Y262775D01*
X1221144Y260236D01*
X1233840Y247540D02*
Y262775D01*
Y252618D02*
X1241458Y257697D01*
X1233840Y252618D02*
X1241458Y247540D01*
X672697Y115314D02*
X670157Y117853D01*
X665079D01*
X662540Y115314D01*
Y105157D01*
X665079Y102618D01*
X670157D01*
X672697Y105157D01*
X677775Y117853D02*
Y105157D01*
X680314Y102618D01*
X685393D01*
X687932Y105157D01*
Y117853D01*
X693010Y102618D02*
Y117853D01*
X700628D01*
X703167Y115314D01*
Y110236D01*
X700628Y107697D01*
X693010D01*
X733637Y115314D02*
X731098Y117853D01*
X726020D01*
X723480Y115314D01*
Y112775D01*
X726020Y110236D01*
X731098D01*
X733637Y107697D01*
Y105157D01*
X731098Y102618D01*
X726020D01*
X723480Y105157D01*
X738715Y97540D02*
Y112775D01*
X746333D01*
X748872Y110236D01*
Y105157D01*
X746333Y102618D01*
X738715D01*
X753950Y112775D02*
Y102618D01*
Y107697D01*
X756490Y110236D01*
X759029Y112775D01*
X761568D01*
X769185Y102618D02*
X774264D01*
X771725D01*
Y112775D01*
X769185D01*
X781881Y102618D02*
Y112775D01*
X789499D01*
X792038Y110236D01*
Y102618D01*
X802195Y97540D02*
X804734D01*
X807273Y100079D01*
Y112775D01*
X799656D01*
X797116Y110236D01*
Y105157D01*
X799656Y102618D01*
X807273D01*
X837743D02*
X827587D01*
X837743Y112775D01*
Y115314D01*
X835204Y117853D01*
X830126D01*
X827587Y115314D01*
X842822D02*
X845361Y117853D01*
X850439D01*
X852978Y115314D01*
Y105157D01*
X850439Y102618D01*
X845361D01*
X842822Y105157D01*
Y115314D01*
X868214Y102618D02*
X858057D01*
X868214Y112775D01*
Y115314D01*
X865674Y117853D01*
X860596D01*
X858057Y115314D01*
X873292D02*
X875831Y117853D01*
X880909D01*
X883449Y115314D01*
Y112775D01*
X880909Y110236D01*
X878370D01*
X880909D01*
X883449Y107697D01*
Y105157D01*
X880909Y102618D01*
X875831D01*
X873292Y105157D01*
X903762Y102618D02*
Y117853D01*
X911379D01*
X913919Y115314D01*
Y110236D01*
X911379Y107697D01*
X903762D01*
X921536Y102618D02*
X926615D01*
X929154Y105157D01*
Y110236D01*
X926615Y112775D01*
X921536D01*
X918997Y110236D01*
Y105157D01*
X921536Y102618D01*
X934232Y112775D02*
Y105157D01*
X936771Y102618D01*
X939311Y105157D01*
X941850Y102618D01*
X944389Y105157D01*
Y112775D01*
X957085Y102618D02*
X952006D01*
X949467Y105157D01*
Y110236D01*
X952006Y112775D01*
X957085D01*
X959624Y110236D01*
Y107697D01*
X949467D01*
X964702Y112775D02*
Y102618D01*
Y107697D01*
X967241Y110236D01*
X969781Y112775D01*
X972320D01*
X995172Y117853D02*
Y102618D01*
X1002790D01*
X1005329Y105157D01*
Y107697D01*
X1002790Y110236D01*
X995172D01*
X1002790D01*
X1005329Y112775D01*
Y115314D01*
X1002790Y117853D01*
X995172D01*
X1012947Y102618D02*
X1018025D01*
X1020564Y105157D01*
Y110236D01*
X1018025Y112775D01*
X1012947D01*
X1010407Y110236D01*
Y105157D01*
X1012947Y102618D01*
X1028182Y112775D02*
X1033260D01*
X1035799Y110236D01*
Y102618D01*
X1028182D01*
X1025643Y105157D01*
X1028182Y107697D01*
X1035799D01*
X1040878Y112775D02*
Y102618D01*
Y107697D01*
X1043417Y110236D01*
X1045956Y112775D01*
X1048495D01*
X1066269Y117853D02*
Y102618D01*
X1058652D01*
X1056113Y105157D01*
Y110236D01*
X1058652Y112775D01*
X1066269D01*
X672697Y87853D02*
X667618D01*
X670157D01*
Y75157D01*
X667618Y72618D01*
X665079D01*
X662540Y75157D01*
X680314Y72618D02*
X685393D01*
X687932Y75157D01*
Y80236D01*
X685393Y82775D01*
X680314D01*
X677775Y80236D01*
Y75157D01*
X680314Y72618D01*
X693010D02*
Y82775D01*
X700628D01*
X703167Y80236D01*
Y72618D01*
X710784Y82775D02*
X715863D01*
X718402Y80236D01*
Y72618D01*
X710784D01*
X708245Y75157D01*
X710784Y77697D01*
X718402D01*
X723480Y72618D02*
X731098D01*
X733637Y75157D01*
X731098Y77697D01*
X726020D01*
X723480Y80236D01*
X726020Y82775D01*
X733637D01*
X764107Y87853D02*
X753950D01*
Y80236D01*
X759029D01*
X753950D01*
Y72618D01*
X769185Y82775D02*
Y75157D01*
X771725Y72618D01*
X779342D01*
Y82775D01*
X784421Y72618D02*
Y82775D01*
X792038D01*
X794577Y80236D01*
Y72618D01*
X799656D02*
Y87853D01*
Y77697D02*
X807273Y82775D01*
X799656Y77697D02*
X807273Y72618D01*
X835204D02*
X830126Y77697D01*
Y82775D01*
X835204Y87853D01*
X842822Y67540D02*
X845361D01*
X847900Y70079D01*
Y82775D01*
X858057D02*
Y75157D01*
X860596Y72618D01*
X863135Y75157D01*
X865674Y72618D01*
X868214Y75157D01*
Y82775D01*
X875831Y72618D02*
Y85314D01*
Y80236D01*
X873292D01*
X878370D01*
X875831D01*
Y85314D01*
X878370Y87853D01*
X896144Y72618D02*
X885988D01*
X896144Y82775D01*
Y85314D01*
X893605Y87853D01*
X888527D01*
X885988Y85314D01*
X911379Y72618D02*
X901223D01*
X911379Y82775D01*
Y85314D01*
X908840Y87853D01*
X903762D01*
X901223Y85314D01*
X924075Y72618D02*
Y87853D01*
X916458Y80236D01*
X926615D01*
X931693Y72618D02*
X936771Y77697D01*
Y82775D01*
X931693Y87853D01*
X962163Y90393D02*
Y85314D01*
X959624Y82775D01*
X979937Y72618D02*
X969781D01*
X979937Y82775D01*
Y85314D01*
X977398Y87853D01*
X972320D01*
X969781Y85314D01*
X992633Y72618D02*
Y87853D01*
X985016Y80236D01*
X995172D01*
X1323586Y370183D02*
X1333743D01*
Y367644D01*
X1323586Y357487D01*
Y354948D01*
X1333743D01*
X1348978Y370183D02*
X1343899Y367644D01*
X1338821Y362565D01*
Y357487D01*
X1341360Y354948D01*
X1346439D01*
X1348978Y357487D01*
Y360026D01*
X1346439Y362565D01*
X1338821D01*
X1322304Y707617D02*
X1332461D01*
Y705078D01*
X1322304Y694922D01*
Y692383D01*
X1332461D01*
X1347696Y707617D02*
X1337539D01*
Y700000D01*
X1342617Y702539D01*
X1345157D01*
X1347696Y700000D01*
Y694922D01*
X1345157Y692383D01*
X1340078D01*
X1337539Y694922D01*
X1314442Y1185269D02*
X1324599D01*
Y1182730D01*
X1314442Y1172573D01*
Y1170034D01*
X1324599D01*
X1337295D02*
Y1185269D01*
X1329677Y1177652D01*
X1339834D01*
X1324602Y1755245D02*
X1334759D01*
Y1752706D01*
X1324602Y1742549D01*
Y1740010D01*
X1334759D01*
X1339837Y1752706D02*
X1342376Y1755245D01*
X1347455D01*
X1349994Y1752706D01*
Y1750167D01*
X1347455Y1747628D01*
X1344915D01*
X1347455D01*
X1349994Y1745088D01*
Y1742549D01*
X1347455Y1740010D01*
X1342376D01*
X1339837Y1742549D01*
X610100Y936857D02*
X620257D01*
Y934318D01*
X610100Y924161D01*
Y921622D01*
X620257D01*
X635492D02*
X625335D01*
X635492Y931779D01*
Y934318D01*
X632953Y936857D01*
X627874D01*
X625335Y934318D01*
X690110Y1898755D02*
X700267D01*
Y1896216D01*
X690110Y1886059D01*
Y1883520D01*
X700267D01*
X705345D02*
X710423D01*
X707884D01*
Y1898755D01*
X705345Y1896216D01*
X832855Y565764D02*
X830315Y568303D01*
X825237D01*
X822698Y565764D01*
Y563225D01*
X825237Y560686D01*
X830315D01*
X832855Y558146D01*
Y555607D01*
X830315Y553068D01*
X825237D01*
X822698Y555607D01*
X845551Y553068D02*
Y568303D01*
X837933Y560686D01*
X848090D01*
X832855Y1045824D02*
X830315Y1048363D01*
X825237D01*
X822698Y1045824D01*
Y1043285D01*
X825237Y1040745D01*
X830315D01*
X832855Y1038206D01*
Y1035667D01*
X830315Y1033128D01*
X825237D01*
X822698Y1035667D01*
X837933Y1045824D02*
X840472Y1048363D01*
X845551D01*
X848090Y1045824D01*
Y1043285D01*
X845551Y1040745D01*
X843011D01*
X845551D01*
X848090Y1038206D01*
Y1035667D01*
X845551Y1033128D01*
X840472D01*
X837933Y1035667D01*
X837681Y1335892D02*
X835142Y1338431D01*
X830063D01*
X827524Y1335892D01*
Y1333353D01*
X830063Y1330813D01*
X835142D01*
X837681Y1328274D01*
Y1325735D01*
X835142Y1323196D01*
X830063D01*
X827524Y1325735D01*
X852916Y1323196D02*
X842759D01*
X852916Y1333353D01*
Y1335892D01*
X850377Y1338431D01*
X845298D01*
X842759Y1335892D01*
X832855Y1885802D02*
X830315Y1888341D01*
X825237D01*
X822698Y1885802D01*
Y1883263D01*
X825237Y1880724D01*
X830315D01*
X832855Y1878184D01*
Y1875645D01*
X830315Y1873106D01*
X825237D01*
X822698Y1875645D01*
X837933Y1873106D02*
X843011D01*
X840472D01*
Y1888341D01*
X837933Y1885802D01*
X1335956Y262383D02*
Y277617D01*
X1343574D01*
X1346113Y275078D01*
Y270000D01*
X1343574Y267461D01*
X1335956D01*
X1341035D02*
X1346113Y262383D01*
X1351191D02*
X1356270D01*
X1353730D01*
Y277617D01*
X1351191Y275078D01*
X1374044Y277617D02*
X1363887D01*
Y270000D01*
X1368965Y272539D01*
X1371505D01*
X1374044Y270000D01*
Y264922D01*
X1371505Y262383D01*
X1366426D01*
X1363887Y264922D01*
X1514086Y484488D02*
Y499723D01*
X1521703D01*
X1524243Y497184D01*
Y492105D01*
X1521703Y489566D01*
X1514086D01*
X1519164D02*
X1524243Y484488D01*
X1529321D02*
X1534399D01*
X1531860D01*
Y499723D01*
X1529321Y497184D01*
X1549635Y484488D02*
Y499723D01*
X1542017Y492105D01*
X1552174D01*
X1110956Y337383D02*
Y352617D01*
X1118574D01*
X1121113Y350078D01*
Y345000D01*
X1118574Y342461D01*
X1110956D01*
X1116034D02*
X1121113Y337383D01*
X1126191D02*
X1131270D01*
X1128730D01*
Y352617D01*
X1126191Y350078D01*
X1138887D02*
X1141426Y352617D01*
X1146505D01*
X1149044Y350078D01*
Y347539D01*
X1146505Y345000D01*
X1143966D01*
X1146505D01*
X1149044Y342461D01*
Y339922D01*
X1146505Y337383D01*
X1141426D01*
X1138887Y339922D01*
X1435956Y632383D02*
Y647617D01*
X1443574D01*
X1446113Y645078D01*
Y640000D01*
X1443574Y637461D01*
X1435956D01*
X1441035D02*
X1446113Y632383D01*
X1451191D02*
X1456270D01*
X1453730D01*
Y647617D01*
X1451191Y645078D01*
X1474044Y632383D02*
X1463887D01*
X1474044Y642539D01*
Y645078D01*
X1471505Y647617D01*
X1466426D01*
X1463887Y645078D01*
X1588508Y734424D02*
Y749659D01*
X1596125D01*
X1598665Y747120D01*
Y742041D01*
X1596125Y739502D01*
X1588508D01*
X1593586D02*
X1598665Y734424D01*
X1603743D02*
X1608821D01*
X1606282D01*
Y749659D01*
X1603743Y747120D01*
X1616439Y734424D02*
X1621517D01*
X1618978D01*
Y749659D01*
X1616439Y747120D01*
X1215956Y817383D02*
Y832617D01*
X1223574D01*
X1226113Y830078D01*
Y825000D01*
X1223574Y822461D01*
X1215956D01*
X1221034D02*
X1226113Y817383D01*
X1231191D02*
X1236270D01*
X1233730D01*
Y832617D01*
X1231191Y830078D01*
X1243887D02*
X1246426Y832617D01*
X1251505D01*
X1254044Y830078D01*
Y819922D01*
X1251505Y817383D01*
X1246426D01*
X1243887Y819922D01*
Y830078D01*
X1337304Y1062383D02*
Y1077617D01*
X1344922D01*
X1347461Y1075078D01*
Y1070000D01*
X1344922Y1067461D01*
X1337304D01*
X1342383D02*
X1347461Y1062383D01*
X1352539Y1064922D02*
X1355078Y1062383D01*
X1360157D01*
X1362696Y1064922D01*
Y1075078D01*
X1360157Y1077617D01*
X1355078D01*
X1352539Y1075078D01*
Y1072539D01*
X1355078Y1070000D01*
X1362696D01*
X1508498Y1324466D02*
Y1339701D01*
X1516116D01*
X1518655Y1337162D01*
Y1332083D01*
X1516116Y1329544D01*
X1508498D01*
X1513576D02*
X1518655Y1324466D01*
X1523733Y1337162D02*
X1526272Y1339701D01*
X1531351D01*
X1533890Y1337162D01*
Y1334623D01*
X1531351Y1332083D01*
X1533890Y1329544D01*
Y1327005D01*
X1531351Y1324466D01*
X1526272D01*
X1523733Y1327005D01*
Y1329544D01*
X1526272Y1332083D01*
X1523733Y1334623D01*
Y1337162D01*
X1526272Y1332083D02*
X1531351D01*
X1127304Y1117383D02*
Y1132617D01*
X1134922D01*
X1137461Y1130078D01*
Y1125000D01*
X1134922Y1122461D01*
X1127304D01*
X1132383D02*
X1137461Y1117383D01*
X1142539Y1132617D02*
X1152696D01*
Y1130078D01*
X1142539Y1119922D01*
Y1117383D01*
X1362304Y1652383D02*
Y1667617D01*
X1369922D01*
X1372461Y1665078D01*
Y1660000D01*
X1369922Y1657461D01*
X1362304D01*
X1367383D02*
X1372461Y1652383D01*
X1387696Y1667617D02*
X1382617Y1665078D01*
X1377539Y1660000D01*
Y1654922D01*
X1380078Y1652383D01*
X1385157D01*
X1387696Y1654922D01*
Y1657461D01*
X1385157Y1660000D01*
X1377539D01*
X1524500Y1874376D02*
Y1889611D01*
X1532117D01*
X1534657Y1887072D01*
Y1881994D01*
X1532117Y1879454D01*
X1524500D01*
X1529578D02*
X1534657Y1874376D01*
X1549892Y1889611D02*
X1539735D01*
Y1881994D01*
X1544813Y1884533D01*
X1547353D01*
X1549892Y1881994D01*
Y1876915D01*
X1547353Y1874376D01*
X1542274D01*
X1539735Y1876915D01*
X1122304Y1687383D02*
Y1702617D01*
X1129922D01*
X1132461Y1700078D01*
Y1695000D01*
X1129922Y1692461D01*
X1122304D01*
X1127383D02*
X1132461Y1687383D01*
X1145157D02*
Y1702617D01*
X1137539Y1695000D01*
X1147696D01*
X704588Y809608D02*
Y824843D01*
X712206D01*
X714745Y822304D01*
Y817225D01*
X712206Y814686D01*
X704588D01*
X709666D02*
X714745Y809608D01*
X719823Y822304D02*
X722362Y824843D01*
X727441D01*
X729980Y822304D01*
Y819765D01*
X727441Y817225D01*
X724901D01*
X727441D01*
X729980Y814686D01*
Y812147D01*
X727441Y809608D01*
X722362D01*
X719823Y812147D01*
X629658Y1813670D02*
Y1828905D01*
X637276D01*
X639815Y1826366D01*
Y1821288D01*
X637276Y1818748D01*
X629658D01*
X634736D02*
X639815Y1813670D01*
X655050D02*
X644893D01*
X655050Y1823827D01*
Y1826366D01*
X652511Y1828905D01*
X647432D01*
X644893Y1826366D01*
X473194Y394572D02*
Y409807D01*
X480812D01*
X483351Y407268D01*
Y402189D01*
X480812Y399650D01*
X473194D01*
X478272D02*
X483351Y394572D01*
X488429D02*
X493507D01*
X490968D01*
Y409807D01*
X488429Y407268D01*
X404865Y1018903D02*
Y1029060D01*
X402326Y1031599D01*
X397247D01*
X394708Y1029060D01*
Y1018903D01*
X397247Y1016364D01*
X402326D01*
X399786Y1021442D02*
X404865Y1016364D01*
X402326D02*
X404865Y1018903D01*
X420100Y1016364D02*
X409943D01*
X420100Y1026521D01*
Y1029060D01*
X417561Y1031599D01*
X412482D01*
X409943Y1029060D01*
X404865Y1893933D02*
Y1904090D01*
X402326Y1906629D01*
X397247D01*
X394708Y1904090D01*
Y1893933D01*
X397247Y1891394D01*
X402326D01*
X399786Y1896472D02*
X404865Y1891394D01*
X402326D02*
X404865Y1893933D01*
X409943Y1891394D02*
X415021D01*
X412482D01*
Y1906629D01*
X409943Y1904090D01*
X1607050Y426063D02*
Y410828D01*
X1617207D01*
X1632442Y426063D02*
X1622285D01*
Y410828D01*
X1632442D01*
X1622285Y418446D02*
X1627363D01*
X1637520Y426063D02*
Y410828D01*
X1645138D01*
X1647677Y413367D01*
Y423524D01*
X1645138Y426063D01*
X1637520D01*
X1662912D02*
X1652755D01*
Y418446D01*
X1657834Y420985D01*
X1660373D01*
X1662912Y418446D01*
Y413367D01*
X1660373Y410828D01*
X1655294D01*
X1652755Y413367D01*
X1617069Y682617D02*
Y667383D01*
X1627226D01*
X1642461Y682617D02*
X1632304D01*
Y667383D01*
X1642461D01*
X1632304Y675000D02*
X1637383D01*
X1647539Y682617D02*
Y667383D01*
X1655157D01*
X1657696Y669922D01*
Y680078D01*
X1655157Y682617D01*
X1647539D01*
X1670392Y667383D02*
Y682617D01*
X1662774Y675000D01*
X1672931D01*
X1592064Y1206097D02*
Y1190862D01*
X1602221D01*
X1617456Y1206097D02*
X1607299D01*
Y1190862D01*
X1617456D01*
X1607299Y1198480D02*
X1612377D01*
X1622534Y1206097D02*
Y1190862D01*
X1630152D01*
X1632691Y1193401D01*
Y1203558D01*
X1630152Y1206097D01*
X1622534D01*
X1637769Y1203558D02*
X1640308Y1206097D01*
X1645387D01*
X1647926Y1203558D01*
Y1201019D01*
X1645387Y1198480D01*
X1642848D01*
X1645387D01*
X1647926Y1195940D01*
Y1193401D01*
X1645387Y1190862D01*
X1640308D01*
X1637769Y1193401D01*
X1601970Y1721209D02*
Y1705974D01*
X1612127D01*
X1627362Y1721209D02*
X1617205D01*
Y1705974D01*
X1627362D01*
X1617205Y1713591D02*
X1622283D01*
X1632440Y1721209D02*
Y1705974D01*
X1640058D01*
X1642597Y1708513D01*
Y1718670D01*
X1640058Y1721209D01*
X1632440D01*
X1657832Y1705974D02*
X1647675D01*
X1657832Y1716131D01*
Y1718670D01*
X1655293Y1721209D01*
X1650214D01*
X1647675Y1718670D01*
X499608Y312617D02*
Y297383D01*
X509765D01*
X525000Y312617D02*
X514843D01*
Y297383D01*
X525000D01*
X514843Y305000D02*
X519922D01*
X530078Y312617D02*
Y297383D01*
X537696D01*
X540235Y299922D01*
Y310078D01*
X537696Y312617D01*
X530078D01*
X545313Y297383D02*
X550392D01*
X547853D01*
Y312617D01*
X545313Y310078D01*
X1146802Y623421D02*
Y608186D01*
X1156959D01*
X1169655D02*
Y623421D01*
X1162037Y615803D01*
X1172194D01*
X1231384Y1008485D02*
Y993250D01*
X1241541D01*
X1246619Y1005946D02*
X1249158Y1008485D01*
X1254237D01*
X1256776Y1005946D01*
Y1003407D01*
X1254237Y1000867D01*
X1251697D01*
X1254237D01*
X1256776Y998328D01*
Y995789D01*
X1254237Y993250D01*
X1249158D01*
X1246619Y995789D01*
X1152390Y1393549D02*
Y1378314D01*
X1162547D01*
X1177782D02*
X1167625D01*
X1177782Y1388471D01*
Y1391010D01*
X1175243Y1393549D01*
X1170164D01*
X1167625Y1391010D01*
X1161280Y1958445D02*
Y1943210D01*
X1171437D01*
X1176515D02*
X1181593D01*
X1179054D01*
Y1958445D01*
X1176515Y1955906D01*
X1045961Y358245D02*
X1040882D01*
X1043421D01*
Y345549D01*
X1040882Y343010D01*
X1038343D01*
X1035804Y345549D01*
X1051039Y343010D02*
X1056117D01*
X1053578D01*
Y358245D01*
X1051039Y355706D01*
X1063735D02*
X1066274Y358245D01*
X1071352D01*
X1073892Y355706D01*
Y353167D01*
X1071352Y350628D01*
X1073892Y348088D01*
Y345549D01*
X1071352Y343010D01*
X1066274D01*
X1063735Y345549D01*
Y348088D01*
X1066274Y350628D01*
X1063735Y353167D01*
Y355706D01*
X1066274Y350628D02*
X1071352D01*
X1061201Y878183D02*
X1056122D01*
X1058661D01*
Y865487D01*
X1056122Y862948D01*
X1053583D01*
X1051044Y865487D01*
X1066279Y862948D02*
X1071357D01*
X1068818D01*
Y878183D01*
X1066279Y875644D01*
X1078975Y878183D02*
X1089132D01*
Y875644D01*
X1078975Y865487D01*
Y862948D01*
X1055867Y1143359D02*
X1050788D01*
X1053327D01*
Y1130663D01*
X1050788Y1128124D01*
X1048249D01*
X1045710Y1130663D01*
X1060945Y1128124D02*
X1066023D01*
X1063484D01*
Y1143359D01*
X1060945Y1140820D01*
X1083798Y1143359D02*
X1078719Y1140820D01*
X1073641Y1135742D01*
Y1130663D01*
X1076180Y1128124D01*
X1081258D01*
X1083798Y1130663D01*
Y1133202D01*
X1081258Y1135742D01*
X1073641D01*
X1055867Y1708255D02*
X1050788D01*
X1053327D01*
Y1695559D01*
X1050788Y1693020D01*
X1048249D01*
X1045710Y1695559D01*
X1060945Y1693020D02*
X1066023D01*
X1063484D01*
Y1708255D01*
X1060945Y1705716D01*
X1083798Y1708255D02*
X1073641D01*
Y1700638D01*
X1078719Y1703177D01*
X1081258D01*
X1083798Y1700638D01*
Y1695559D01*
X1081258Y1693020D01*
X1076180D01*
X1073641Y1695559D01*
X1430263Y155807D02*
X1425184D01*
X1427724D01*
Y143111D01*
X1425184Y140572D01*
X1422645D01*
X1420106Y143111D01*
X1435341Y140572D02*
X1440419D01*
X1437880D01*
Y155807D01*
X1435341Y153268D01*
X1455654Y140572D02*
Y155807D01*
X1448037Y148189D01*
X1458194D01*
X1686113Y657617D02*
X1681035D01*
X1683574D01*
Y644922D01*
X1681035Y642383D01*
X1678495D01*
X1675956Y644922D01*
X1691191Y642383D02*
X1696270D01*
X1693730D01*
Y657617D01*
X1691191Y655078D01*
X1703887D02*
X1706426Y657617D01*
X1711505D01*
X1714044Y655078D01*
Y652539D01*
X1711505Y650000D01*
X1708965D01*
X1711505D01*
X1714044Y647461D01*
Y644922D01*
X1711505Y642383D01*
X1706426D01*
X1703887Y644922D01*
X1679691Y1955397D02*
X1674612D01*
X1677151D01*
Y1942701D01*
X1674612Y1940162D01*
X1672073D01*
X1669534Y1942701D01*
X1684769Y1940162D02*
X1689847D01*
X1687308D01*
Y1955397D01*
X1684769Y1952858D01*
X1707622Y1940162D02*
X1697465D01*
X1707622Y1950319D01*
Y1952858D01*
X1705083Y1955397D01*
X1700004D01*
X1697465Y1952858D01*
X1679691Y904599D02*
X1674612D01*
X1677151D01*
Y891903D01*
X1674612Y889364D01*
X1672073D01*
X1669534Y891903D01*
X1684769Y889364D02*
X1689847D01*
X1687308D01*
Y904599D01*
X1684769Y902060D01*
X1697465Y889364D02*
X1702543D01*
X1700004D01*
Y904599D01*
X1697465Y902060D01*
X1679691Y1175363D02*
X1674612D01*
X1677151D01*
Y1162667D01*
X1674612Y1160128D01*
X1672073D01*
X1669534Y1162667D01*
X1684769Y1160128D02*
X1689847D01*
X1687308D01*
Y1175363D01*
X1684769Y1172824D01*
X1697465D02*
X1700004Y1175363D01*
X1705083D01*
X1707622Y1172824D01*
Y1162667D01*
X1705083Y1160128D01*
X1700004D01*
X1697465Y1162667D01*
Y1172824D01*
X1679691Y1699873D02*
X1674612D01*
X1677151D01*
Y1687177D01*
X1674612Y1684638D01*
X1672073D01*
X1669534Y1687177D01*
X1684769D02*
X1687308Y1684638D01*
X1692387D01*
X1694926Y1687177D01*
Y1697334D01*
X1692387Y1699873D01*
X1687308D01*
X1684769Y1697334D01*
Y1694795D01*
X1687308Y1692256D01*
X1694926D01*
X377179Y155807D02*
X372100D01*
X374640D01*
Y143111D01*
X372100Y140572D01*
X369561D01*
X367022Y143111D01*
X382257Y153268D02*
X384796Y155807D01*
X389875D01*
X392414Y153268D01*
Y150729D01*
X389875Y148189D01*
X392414Y145650D01*
Y143111D01*
X389875Y140572D01*
X384796D01*
X382257Y143111D01*
Y145650D01*
X384796Y148189D01*
X382257Y150729D01*
Y153268D01*
X384796Y148189D02*
X389875D01*
X1679691Y393805D02*
X1674612D01*
X1677151D01*
Y381109D01*
X1674612Y378570D01*
X1672073D01*
X1669534Y381109D01*
X1684769Y393805D02*
X1694926D01*
Y391266D01*
X1684769Y381109D01*
Y378570D01*
X1679691Y1435459D02*
X1674612D01*
X1677151D01*
Y1422763D01*
X1674612Y1420224D01*
X1672073D01*
X1669534Y1422763D01*
X1694926Y1435459D02*
X1689847Y1432920D01*
X1684769Y1427841D01*
Y1422763D01*
X1687308Y1420224D01*
X1692387D01*
X1694926Y1422763D01*
Y1425302D01*
X1692387Y1427841D01*
X1684769D01*
X61711Y1017629D02*
X56632D01*
X59172D01*
Y1004933D01*
X56632Y1002394D01*
X54093D01*
X51554Y1004933D01*
X76946Y1017629D02*
X66789D01*
Y1010012D01*
X71867Y1012551D01*
X74407D01*
X76946Y1010012D01*
Y1004933D01*
X74407Y1002394D01*
X69328D01*
X66789Y1004933D01*
X61711Y1327509D02*
X56632D01*
X59172D01*
Y1314813D01*
X56632Y1312274D01*
X54093D01*
X51554Y1314813D01*
X74407Y1312274D02*
Y1327509D01*
X66789Y1319892D01*
X76946D01*
X61711Y1630277D02*
X56632D01*
X59172D01*
Y1617581D01*
X56632Y1615042D01*
X54093D01*
X51554Y1617581D01*
X66789Y1627738D02*
X69328Y1630277D01*
X74407D01*
X76946Y1627738D01*
Y1625199D01*
X74407Y1622659D01*
X71867D01*
X74407D01*
X76946Y1620120D01*
Y1617581D01*
X74407Y1615042D01*
X69328D01*
X66789Y1617581D01*
X61711Y1937617D02*
X56632D01*
X59172D01*
Y1924921D01*
X56632Y1922382D01*
X54093D01*
X51554Y1924921D01*
X76946Y1922382D02*
X66789D01*
X76946Y1932539D01*
Y1935078D01*
X74407Y1937617D01*
X69328D01*
X66789Y1935078D01*
X116321Y155807D02*
X111242D01*
X113781D01*
Y143111D01*
X111242Y140572D01*
X108703D01*
X106164Y143111D01*
X121399Y140572D02*
X126477D01*
X123938D01*
Y155807D01*
X121399Y153268D01*
X1080000Y455527D02*
X1085078D01*
X1082539D01*
Y440292D01*
X1080000D01*
X1085078D01*
X1102853Y452988D02*
X1100313Y455527D01*
X1095235D01*
X1092696Y452988D01*
Y442831D01*
X1095235Y440292D01*
X1100313D01*
X1102853Y442831D01*
X1115548Y440292D02*
Y455527D01*
X1107931Y447910D01*
X1118088D01*
X1139944Y905615D02*
X1145022D01*
X1142483D01*
Y890380D01*
X1139944D01*
X1145022D01*
X1162797Y903076D02*
X1160257Y905615D01*
X1155179D01*
X1152640Y903076D01*
Y892919D01*
X1155179Y890380D01*
X1160257D01*
X1162797Y892919D01*
X1167875Y903076D02*
X1170414Y905615D01*
X1175492D01*
X1178032Y903076D01*
Y900537D01*
X1175492Y897998D01*
X1172953D01*
X1175492D01*
X1178032Y895458D01*
Y892919D01*
X1175492Y890380D01*
X1170414D01*
X1167875Y892919D01*
X1080000Y1245721D02*
X1085078D01*
X1082539D01*
Y1230486D01*
X1080000D01*
X1085078D01*
X1102853Y1243182D02*
X1100313Y1245721D01*
X1095235D01*
X1092696Y1243182D01*
Y1233025D01*
X1095235Y1230486D01*
X1100313D01*
X1102853Y1233025D01*
X1118088Y1230486D02*
X1107931D01*
X1118088Y1240643D01*
Y1243182D01*
X1115548Y1245721D01*
X1110470D01*
X1107931Y1243182D01*
X1083495Y1807617D02*
X1088574D01*
X1086035D01*
Y1792383D01*
X1083495D01*
X1088574D01*
X1106348Y1805078D02*
X1103809Y1807617D01*
X1098730D01*
X1096191Y1805078D01*
Y1794922D01*
X1098730Y1792383D01*
X1103809D01*
X1106348Y1794922D01*
X1111426Y1792383D02*
X1116505D01*
X1113966D01*
Y1807617D01*
X1111426Y1805078D01*
X1340601Y562715D02*
X1330444D01*
Y555098D01*
X1335522D01*
X1330444D01*
Y547480D01*
X1353297D02*
Y562715D01*
X1345679Y555098D01*
X1355836D01*
X1390893Y1002643D02*
X1380736D01*
Y995025D01*
X1385814D01*
X1380736D01*
Y987408D01*
X1395971Y1000104D02*
X1398510Y1002643D01*
X1403589D01*
X1406128Y1000104D01*
Y997565D01*
X1403589Y995025D01*
X1401049D01*
X1403589D01*
X1406128Y992486D01*
Y989947D01*
X1403589Y987408D01*
X1398510D01*
X1395971Y989947D01*
X1335521Y1387707D02*
X1325364D01*
Y1380090D01*
X1330442D01*
X1325364D01*
Y1372472D01*
X1350756D02*
X1340599D01*
X1350756Y1382629D01*
Y1385168D01*
X1348217Y1387707D01*
X1343138D01*
X1340599Y1385168D01*
X1345681Y1952603D02*
X1335524D01*
Y1944986D01*
X1340602D01*
X1335524D01*
Y1937368D01*
X1350759D02*
X1355837D01*
X1353298D01*
Y1952603D01*
X1350759Y1950064D01*
X1398516Y430127D02*
Y414892D01*
X1406134D01*
X1408673Y417431D01*
Y427588D01*
X1406134Y430127D01*
X1398516D01*
X1413751Y414892D02*
X1418829D01*
X1416290D01*
Y430127D01*
X1413751Y427588D01*
X1426447D02*
X1428986Y430127D01*
X1434064D01*
X1436604Y427588D01*
Y425049D01*
X1434064Y422509D01*
X1431525D01*
X1434064D01*
X1436604Y419970D01*
Y417431D01*
X1434064Y414892D01*
X1428986D01*
X1426447Y417431D01*
X1040376Y629771D02*
Y614536D01*
X1047993D01*
X1050533Y617075D01*
Y627232D01*
X1047993Y629771D01*
X1040376D01*
X1055611Y614536D02*
X1060689D01*
X1058150D01*
Y629771D01*
X1055611Y627232D01*
X1078464Y614536D02*
X1068307D01*
X1078464Y624693D01*
Y627232D01*
X1075925Y629771D01*
X1070846D01*
X1068307Y627232D01*
X1539232Y285601D02*
Y270366D01*
X1546850D01*
X1549389Y272905D01*
Y283062D01*
X1546850Y285601D01*
X1539232D01*
X1554467Y270366D02*
X1559545D01*
X1557006D01*
Y285601D01*
X1554467Y283062D01*
X1567163Y270366D02*
X1572241D01*
X1569702D01*
Y285601D01*
X1567163Y283062D01*
X1438648Y858117D02*
Y842882D01*
X1446266D01*
X1448805Y845421D01*
Y855578D01*
X1446266Y858117D01*
X1438648D01*
X1453883Y842882D02*
X1458961D01*
X1456422D01*
Y858117D01*
X1453883Y855578D01*
X1466579D02*
X1469118Y858117D01*
X1474196D01*
X1476736Y855578D01*
Y845421D01*
X1474196Y842882D01*
X1469118D01*
X1466579Y845421D01*
Y855578D01*
X1065268Y1064873D02*
Y1049638D01*
X1072886D01*
X1075425Y1052177D01*
Y1062334D01*
X1072886Y1064873D01*
X1065268D01*
X1080503Y1052177D02*
X1083042Y1049638D01*
X1088121D01*
X1090660Y1052177D01*
Y1062334D01*
X1088121Y1064873D01*
X1083042D01*
X1080503Y1062334D01*
Y1059795D01*
X1083042Y1057255D01*
X1090660D01*
X1544312Y637645D02*
Y622410D01*
X1551929D01*
X1554469Y624949D01*
Y635106D01*
X1551929Y637645D01*
X1544312D01*
X1559547Y635106D02*
X1562086Y637645D01*
X1567165D01*
X1569704Y635106D01*
Y632567D01*
X1567165Y630028D01*
X1569704Y627488D01*
Y624949D01*
X1567165Y622410D01*
X1562086D01*
X1559547Y624949D01*
Y627488D01*
X1562086Y630028D01*
X1559547Y632567D01*
Y635106D01*
X1562086Y630028D02*
X1567165D01*
X1396484Y1233275D02*
Y1218040D01*
X1404102D01*
X1406641Y1220579D01*
Y1230736D01*
X1404102Y1233275D01*
X1396484D01*
X1411719D02*
X1421876D01*
Y1230736D01*
X1411719Y1220579D01*
Y1218040D01*
X1040376Y1399899D02*
Y1384664D01*
X1047993D01*
X1050533Y1387203D01*
Y1397360D01*
X1047993Y1399899D01*
X1040376D01*
X1065768D02*
X1060689Y1397360D01*
X1055611Y1392281D01*
Y1387203D01*
X1058150Y1384664D01*
X1063229D01*
X1065768Y1387203D01*
Y1389742D01*
X1063229Y1392281D01*
X1055611D01*
X1549900Y1126087D02*
Y1110852D01*
X1557518D01*
X1560057Y1113391D01*
Y1123548D01*
X1557518Y1126087D01*
X1549900D01*
X1575292D02*
X1565135D01*
Y1118469D01*
X1570213Y1121009D01*
X1572753D01*
X1575292Y1118469D01*
Y1113391D01*
X1572753Y1110852D01*
X1567674D01*
X1565135Y1113391D01*
X1408676Y1802997D02*
Y1787762D01*
X1416293D01*
X1418833Y1790301D01*
Y1800458D01*
X1416293Y1802997D01*
X1408676D01*
X1431529Y1787762D02*
Y1802997D01*
X1423911Y1795379D01*
X1434068D01*
X1035296Y1954889D02*
Y1939654D01*
X1042914D01*
X1045453Y1942193D01*
Y1952350D01*
X1042914Y1954889D01*
X1035296D01*
X1050531Y1952350D02*
X1053070Y1954889D01*
X1058149D01*
X1060688Y1952350D01*
Y1949811D01*
X1058149Y1947272D01*
X1055609D01*
X1058149D01*
X1060688Y1944732D01*
Y1942193D01*
X1058149Y1939654D01*
X1053070D01*
X1050531Y1942193D01*
X1552694Y1651105D02*
Y1635870D01*
X1560311D01*
X1562851Y1638409D01*
Y1648566D01*
X1560311Y1651105D01*
X1552694D01*
X1578086Y1635870D02*
X1567929D01*
X1578086Y1646027D01*
Y1648566D01*
X1575547Y1651105D01*
X1570468D01*
X1567929Y1648566D01*
X539742Y1391009D02*
Y1375774D01*
X547360D01*
X549899Y1378313D01*
Y1388470D01*
X547360Y1391009D01*
X539742D01*
X554977Y1375774D02*
X560055D01*
X557516D01*
Y1391009D01*
X554977Y1388470D01*
X1299843Y190078D02*
X1297304Y192617D01*
X1292226D01*
X1289687Y190078D01*
Y179922D01*
X1292226Y177383D01*
X1297304D01*
X1299843Y179922D01*
X1304922Y190078D02*
X1307461Y192617D01*
X1312539D01*
X1315078Y190078D01*
Y187539D01*
X1312539Y185000D01*
X1310000D01*
X1312539D01*
X1315078Y182461D01*
Y179922D01*
X1312539Y177383D01*
X1307461D01*
X1304922Y179922D01*
X1327774Y177383D02*
Y192617D01*
X1320157Y185000D01*
X1330313D01*
X1024843Y440078D02*
X1022304Y442617D01*
X1017226D01*
X1014687Y440078D01*
Y429922D01*
X1017226Y427383D01*
X1022304D01*
X1024843Y429922D01*
X1029922Y440078D02*
X1032461Y442617D01*
X1037539D01*
X1040078Y440078D01*
Y437539D01*
X1037539Y435000D01*
X1035000D01*
X1037539D01*
X1040078Y432461D01*
Y429922D01*
X1037539Y427383D01*
X1032461D01*
X1029922Y429922D01*
X1045157Y440078D02*
X1047696Y442617D01*
X1052774D01*
X1055313Y440078D01*
Y437539D01*
X1052774Y435000D01*
X1050235D01*
X1052774D01*
X1055313Y432461D01*
Y429922D01*
X1052774Y427383D01*
X1047696D01*
X1045157Y429922D01*
X1027927Y486262D02*
X1025387Y488801D01*
X1020309D01*
X1017770Y486262D01*
Y476105D01*
X1020309Y473566D01*
X1025387D01*
X1027927Y476105D01*
X1033005Y486262D02*
X1035544Y488801D01*
X1040623D01*
X1043162Y486262D01*
Y483723D01*
X1040623Y481184D01*
X1038083D01*
X1040623D01*
X1043162Y478644D01*
Y476105D01*
X1040623Y473566D01*
X1035544D01*
X1033005Y476105D01*
X1058397Y473566D02*
X1048240D01*
X1058397Y483723D01*
Y486262D01*
X1055858Y488801D01*
X1050779D01*
X1048240Y486262D01*
X1035039Y544174D02*
X1032499Y546713D01*
X1027421D01*
X1024882Y544174D01*
Y534017D01*
X1027421Y531478D01*
X1032499D01*
X1035039Y534017D01*
X1040117Y544174D02*
X1042656Y546713D01*
X1047735D01*
X1050274Y544174D01*
Y541635D01*
X1047735Y539095D01*
X1045195D01*
X1047735D01*
X1050274Y536556D01*
Y534017D01*
X1047735Y531478D01*
X1042656D01*
X1040117Y534017D01*
X1055352Y531478D02*
X1060431D01*
X1057891D01*
Y546713D01*
X1055352Y544174D01*
X1292087Y459592D02*
X1289547Y462131D01*
X1284469D01*
X1281930Y459592D01*
Y449435D01*
X1284469Y446896D01*
X1289547D01*
X1292087Y449435D01*
X1297165Y459592D02*
X1299704Y462131D01*
X1304783D01*
X1307322Y459592D01*
Y457053D01*
X1304783Y454514D01*
X1302243D01*
X1304783D01*
X1307322Y451974D01*
Y449435D01*
X1304783Y446896D01*
X1299704D01*
X1297165Y449435D01*
X1312400Y459592D02*
X1314939Y462131D01*
X1320018D01*
X1322557Y459592D01*
Y449435D01*
X1320018Y446896D01*
X1314939D01*
X1312400Y449435D01*
Y459592D01*
X1354571Y466704D02*
X1352032Y469243D01*
X1346953D01*
X1344414Y466704D01*
Y456547D01*
X1346953Y454008D01*
X1352032D01*
X1354571Y456547D01*
X1369806Y454008D02*
X1359649D01*
X1369806Y464165D01*
Y466704D01*
X1367267Y469243D01*
X1362188D01*
X1359649Y466704D01*
X1374884Y456547D02*
X1377423Y454008D01*
X1382502D01*
X1385041Y456547D01*
Y466704D01*
X1382502Y469243D01*
X1377423D01*
X1374884Y466704D01*
Y464165D01*
X1377423Y461626D01*
X1385041D01*
X1215887Y467720D02*
X1213347Y470259D01*
X1208269D01*
X1205730Y467720D01*
Y457563D01*
X1208269Y455024D01*
X1213347D01*
X1215887Y457563D01*
X1231122Y455024D02*
X1220965D01*
X1231122Y465181D01*
Y467720D01*
X1228583Y470259D01*
X1223504D01*
X1220965Y467720D01*
X1236200D02*
X1238739Y470259D01*
X1243818D01*
X1246357Y467720D01*
Y465181D01*
X1243818Y462641D01*
X1246357Y460102D01*
Y457563D01*
X1243818Y455024D01*
X1238739D01*
X1236200Y457563D01*
Y460102D01*
X1238739Y462641D01*
X1236200Y465181D01*
Y467720D01*
X1238739Y462641D02*
X1243818D01*
X1115049Y524108D02*
X1112510Y526647D01*
X1107431D01*
X1104892Y524108D01*
Y513951D01*
X1107431Y511412D01*
X1112510D01*
X1115049Y513951D01*
X1130284Y511412D02*
X1120127D01*
X1130284Y521569D01*
Y524108D01*
X1127745Y526647D01*
X1122666D01*
X1120127Y524108D01*
X1135362Y526647D02*
X1145519D01*
Y524108D01*
X1135362Y513951D01*
Y511412D01*
X1399843Y580078D02*
X1397304Y582617D01*
X1392226D01*
X1389687Y580078D01*
Y569922D01*
X1392226Y567383D01*
X1397304D01*
X1399843Y569922D01*
X1415078Y567383D02*
X1404922D01*
X1415078Y577539D01*
Y580078D01*
X1412539Y582617D01*
X1407461D01*
X1404922Y580078D01*
X1430313Y582617D02*
X1425235Y580078D01*
X1420157Y575000D01*
Y569922D01*
X1422696Y567383D01*
X1427774D01*
X1430313Y569922D01*
Y572461D01*
X1427774Y575000D01*
X1420157D01*
X1024843Y925078D02*
X1022304Y927617D01*
X1017226D01*
X1014687Y925078D01*
Y914922D01*
X1017226Y912383D01*
X1022304D01*
X1024843Y914922D01*
X1040078Y912383D02*
X1029922D01*
X1040078Y922539D01*
Y925078D01*
X1037539Y927617D01*
X1032461D01*
X1029922Y925078D01*
X1055313Y927617D02*
X1045157D01*
Y920000D01*
X1050235Y922539D01*
X1052774D01*
X1055313Y920000D01*
Y914922D01*
X1052774Y912383D01*
X1047696D01*
X1045157Y914922D01*
X1027927Y971148D02*
X1025387Y973687D01*
X1020309D01*
X1017770Y971148D01*
Y960991D01*
X1020309Y958452D01*
X1025387D01*
X1027927Y960991D01*
X1043162Y958452D02*
X1033005D01*
X1043162Y968609D01*
Y971148D01*
X1040623Y973687D01*
X1035544D01*
X1033005Y971148D01*
X1055858Y958452D02*
Y973687D01*
X1048240Y966069D01*
X1058397D01*
X1033261Y1029060D02*
X1030722Y1031599D01*
X1025643D01*
X1023104Y1029060D01*
Y1018903D01*
X1025643Y1016364D01*
X1030722D01*
X1033261Y1018903D01*
X1048496Y1016364D02*
X1038339D01*
X1048496Y1026521D01*
Y1029060D01*
X1045957Y1031599D01*
X1040878D01*
X1038339Y1029060D01*
X1053574D02*
X1056113Y1031599D01*
X1061192D01*
X1063731Y1029060D01*
Y1026521D01*
X1061192Y1023981D01*
X1058652D01*
X1061192D01*
X1063731Y1021442D01*
Y1018903D01*
X1061192Y1016364D01*
X1056113D01*
X1053574Y1018903D01*
X1376923Y849736D02*
X1374384Y852275D01*
X1369305D01*
X1366766Y849736D01*
Y839579D01*
X1369305Y837040D01*
X1374384D01*
X1376923Y839579D01*
X1392158Y837040D02*
X1382001D01*
X1392158Y847197D01*
Y849736D01*
X1389619Y852275D01*
X1384540D01*
X1382001Y849736D01*
X1407393Y837040D02*
X1397236D01*
X1407393Y847197D01*
Y849736D01*
X1404854Y852275D01*
X1399775D01*
X1397236Y849736D01*
X1402383Y790078D02*
X1399843Y792617D01*
X1394765D01*
X1392226Y790078D01*
Y779922D01*
X1394765Y777383D01*
X1399843D01*
X1402383Y779922D01*
X1417618Y777383D02*
X1407461D01*
X1417618Y787539D01*
Y790078D01*
X1415078Y792617D01*
X1410000D01*
X1407461Y790078D01*
X1422696Y777383D02*
X1427774D01*
X1425235D01*
Y792617D01*
X1422696Y790078D01*
X1309843Y850078D02*
X1307304Y852617D01*
X1302226D01*
X1299687Y850078D01*
Y839922D01*
X1302226Y837383D01*
X1307304D01*
X1309843Y839922D01*
X1325078Y837383D02*
X1314922D01*
X1325078Y847539D01*
Y850078D01*
X1322539Y852617D01*
X1317461D01*
X1314922Y850078D01*
X1330157D02*
X1332696Y852617D01*
X1337774D01*
X1340313Y850078D01*
Y839922D01*
X1337774Y837383D01*
X1332696D01*
X1330157Y839922D01*
Y850078D01*
X1129019Y972926D02*
X1126479Y975465D01*
X1121401D01*
X1118862Y972926D01*
Y962769D01*
X1121401Y960230D01*
X1126479D01*
X1129019Y962769D01*
X1134097Y960230D02*
X1139175D01*
X1136636D01*
Y975465D01*
X1134097Y972926D01*
X1146793Y962769D02*
X1149332Y960230D01*
X1154410D01*
X1156950Y962769D01*
Y972926D01*
X1154410Y975465D01*
X1149332D01*
X1146793Y972926D01*
Y970387D01*
X1149332Y967848D01*
X1156950D01*
X1306113Y1010078D02*
X1303574Y1012617D01*
X1298495D01*
X1295956Y1010078D01*
Y999922D01*
X1298495Y997383D01*
X1303574D01*
X1306113Y999922D01*
X1311191Y997383D02*
X1316270D01*
X1313730D01*
Y1012617D01*
X1311191Y1010078D01*
X1323887D02*
X1326426Y1012617D01*
X1331505D01*
X1334044Y1010078D01*
Y1007539D01*
X1331505Y1005000D01*
X1334044Y1002461D01*
Y999922D01*
X1331505Y997383D01*
X1326426D01*
X1323887Y999922D01*
Y1002461D01*
X1326426Y1005000D01*
X1323887Y1007539D01*
Y1010078D01*
X1326426Y1005000D02*
X1331505D01*
X1027927Y1211178D02*
X1025387Y1213717D01*
X1020309D01*
X1017770Y1211178D01*
Y1201021D01*
X1020309Y1198482D01*
X1025387D01*
X1027927Y1201021D01*
X1033005Y1198482D02*
X1038083D01*
X1035544D01*
Y1213717D01*
X1033005Y1211178D01*
X1045701Y1213717D02*
X1055858D01*
Y1211178D01*
X1045701Y1201021D01*
Y1198482D01*
X1027927Y1261216D02*
X1025387Y1263755D01*
X1020309D01*
X1017770Y1261216D01*
Y1251059D01*
X1020309Y1248520D01*
X1025387D01*
X1027927Y1251059D01*
X1033005Y1248520D02*
X1038083D01*
X1035544D01*
Y1263755D01*
X1033005Y1261216D01*
X1055858Y1263755D02*
X1050779Y1261216D01*
X1045701Y1256137D01*
Y1251059D01*
X1048240Y1248520D01*
X1053318D01*
X1055858Y1251059D01*
Y1253598D01*
X1053318Y1256137D01*
X1045701D01*
X1035039Y1308968D02*
X1032499Y1311507D01*
X1027421D01*
X1024882Y1308968D01*
Y1298811D01*
X1027421Y1296272D01*
X1032499D01*
X1035039Y1298811D01*
X1040117Y1296272D02*
X1045195D01*
X1042656D01*
Y1311507D01*
X1040117Y1308968D01*
X1062970Y1311507D02*
X1052813D01*
Y1303889D01*
X1057891Y1306429D01*
X1060431D01*
X1062970Y1303889D01*
Y1298811D01*
X1060431Y1296272D01*
X1055352D01*
X1052813Y1298811D01*
X1287007Y1234546D02*
X1284467Y1237085D01*
X1279389D01*
X1276850Y1234546D01*
Y1224389D01*
X1279389Y1221850D01*
X1284467D01*
X1287007Y1224389D01*
X1292085Y1221850D02*
X1297163D01*
X1294624D01*
Y1237085D01*
X1292085Y1234546D01*
X1312399Y1221850D02*
Y1237085D01*
X1304781Y1229467D01*
X1314938D01*
X1349491Y1246738D02*
X1346951Y1249277D01*
X1341873D01*
X1339334Y1246738D01*
Y1236581D01*
X1341873Y1234042D01*
X1346951D01*
X1349491Y1236581D01*
X1354569Y1234042D02*
X1359647D01*
X1357108D01*
Y1249277D01*
X1354569Y1246738D01*
X1367265D02*
X1369804Y1249277D01*
X1374883D01*
X1377422Y1246738D01*
Y1244199D01*
X1374883Y1241659D01*
X1372343D01*
X1374883D01*
X1377422Y1239120D01*
Y1236581D01*
X1374883Y1234042D01*
X1369804D01*
X1367265Y1236581D01*
X1115049Y1289156D02*
X1112510Y1291695D01*
X1107431D01*
X1104892Y1289156D01*
Y1278999D01*
X1107431Y1276460D01*
X1112510D01*
X1115049Y1278999D01*
X1120127Y1276460D02*
X1125205D01*
X1122666D01*
Y1291695D01*
X1120127Y1289156D01*
X1132823Y1276460D02*
X1137901D01*
X1135362D01*
Y1291695D01*
X1132823Y1289156D01*
X1331113Y1590078D02*
X1328574Y1592617D01*
X1323495D01*
X1320956Y1590078D01*
Y1579922D01*
X1323495Y1577383D01*
X1328574D01*
X1331113Y1579922D01*
X1336191Y1577383D02*
X1341270D01*
X1338730D01*
Y1592617D01*
X1336191Y1590078D01*
X1348887D02*
X1351426Y1592617D01*
X1356505D01*
X1359044Y1590078D01*
Y1579922D01*
X1356505Y1577383D01*
X1351426D01*
X1348887Y1579922D01*
Y1590078D01*
X1021831Y1761088D02*
X1019292Y1763627D01*
X1014213D01*
X1011674Y1761088D01*
Y1750931D01*
X1014213Y1748392D01*
X1019292D01*
X1021831Y1750931D01*
X1026909D02*
X1029448Y1748392D01*
X1034527D01*
X1037066Y1750931D01*
Y1761088D01*
X1034527Y1763627D01*
X1029448D01*
X1026909Y1761088D01*
Y1758549D01*
X1029448Y1756010D01*
X1037066D01*
X1021831Y1811126D02*
X1019292Y1813665D01*
X1014213D01*
X1011674Y1811126D01*
Y1800969D01*
X1014213Y1798430D01*
X1019292D01*
X1021831Y1800969D01*
X1026909Y1811126D02*
X1029448Y1813665D01*
X1034527D01*
X1037066Y1811126D01*
Y1808587D01*
X1034527Y1806048D01*
X1037066Y1803508D01*
Y1800969D01*
X1034527Y1798430D01*
X1029448D01*
X1026909Y1800969D01*
Y1803508D01*
X1029448Y1806048D01*
X1026909Y1808587D01*
Y1811126D01*
X1029448Y1806048D02*
X1034527D01*
X1028181Y1859132D02*
X1025641Y1861671D01*
X1020563D01*
X1018024Y1859132D01*
Y1848975D01*
X1020563Y1846436D01*
X1025641D01*
X1028181Y1848975D01*
X1033259Y1861671D02*
X1043416D01*
Y1859132D01*
X1033259Y1848975D01*
Y1846436D01*
X1281927Y1797156D02*
X1279388Y1799695D01*
X1274309D01*
X1271770Y1797156D01*
Y1786999D01*
X1274309Y1784460D01*
X1279388D01*
X1281927Y1786999D01*
X1297162Y1799695D02*
X1292083Y1797156D01*
X1287005Y1792077D01*
Y1786999D01*
X1289544Y1784460D01*
X1294623D01*
X1297162Y1786999D01*
Y1789538D01*
X1294623Y1792077D01*
X1287005D01*
X1363207Y1861672D02*
X1360668Y1864211D01*
X1355589D01*
X1353050Y1861672D01*
Y1851515D01*
X1355589Y1848976D01*
X1360668D01*
X1363207Y1851515D01*
X1378442Y1864211D02*
X1368285D01*
Y1856593D01*
X1373363Y1859133D01*
X1375903D01*
X1378442Y1856593D01*
Y1851515D01*
X1375903Y1848976D01*
X1370824D01*
X1368285Y1851515D01*
X1211061Y1802744D02*
X1208521Y1805283D01*
X1203443D01*
X1200904Y1802744D01*
Y1792587D01*
X1203443Y1790048D01*
X1208521D01*
X1211061Y1792587D01*
X1223757Y1790048D02*
Y1805283D01*
X1216139Y1797666D01*
X1226296D01*
X1116319Y1848972D02*
X1113780Y1851511D01*
X1108701D01*
X1106162Y1848972D01*
Y1838815D01*
X1108701Y1836276D01*
X1113780D01*
X1116319Y1838815D01*
X1121397Y1848972D02*
X1123936Y1851511D01*
X1129015D01*
X1131554Y1848972D01*
Y1846433D01*
X1129015Y1843893D01*
X1126475D01*
X1129015D01*
X1131554Y1841354D01*
Y1838815D01*
X1129015Y1836276D01*
X1123936D01*
X1121397Y1838815D01*
X477509Y1260454D02*
X474969Y1262993D01*
X469891D01*
X467352Y1260454D01*
Y1250297D01*
X469891Y1247758D01*
X474969D01*
X477509Y1250297D01*
X492744Y1247758D02*
X482587D01*
X492744Y1257915D01*
Y1260454D01*
X490205Y1262993D01*
X485126D01*
X482587Y1260454D01*
X477509Y1685650D02*
X474969Y1688189D01*
X469891D01*
X467352Y1685650D01*
Y1675493D01*
X469891Y1672954D01*
X474969D01*
X477509Y1675493D01*
X482587Y1672954D02*
X487665D01*
X485126D01*
Y1688189D01*
X482587Y1685650D01*
M02*
